<?xml version="1.0" encoding="UTF-8" standalone="no"?>
<svg
   xmlns:dc="http://purl.org/dc/elements/1.1/"
   xmlns:cc="http://creativecommons.org/ns#"
   xmlns:rdf="http://www.w3.org/1999/02/22-rdf-syntax-ns#"
   xmlns:svg="http://www.w3.org/2000/svg"
   xmlns="http://www.w3.org/2000/svg"
   viewBox="0 0 400 400"
   height="400"
   width="400"
   xml:space="preserve"
   version="1.1"
   id="svg2"><metadata
     id="metadata8"><rdf:RDF><cc:Work
         rdf:about=""><dc:format>image/svg+xml</dc:format><dc:type
           rdf:resource="http://purl.org/dc/dcmitype/StillImage" /><dc:title></dc:title></cc:Work></rdf:RDF></metadata><defs
     id="defs6" /><g
     transform="matrix(1.25,0,0,-1.25,0,400)"
     id="g10"><g
       transform="matrix(0.79514592,0,0,0.79514592,-67.562711,-242.7545)"
       id="g4194"><path
         id="path24"
         style="fill:#f8f8f8;fill-opacity:1;fill-rule:nonzero;stroke:none"
         d="m 192.93991,473.22263 35.239,-43.344 c 3.044,-3.743 7.62,-5.947 12.444,-5.883 50.992,0.681 105.434,19.842 151.916,57.632 57.90901,47.081 90.072,112.162 92.175,173.579 0.389,11.355 -7.63199,21.222 -18.828,23.159 -60.55399,10.477 -130.83,-7.725 -188.74,-54.806 -46.48,-37.789 -76.351,-87.174 -87.425,-136.954 -1.048,-4.709 0.176,-9.638 3.219,-13.383" /><path
         id="path26"
         style="fill:#941b11;fill-opacity:1;fill-rule:nonzero;stroke:none"
         d="m 252.05291,423.20263 c 17.461,-21.477 16.148,-52.083 -1.871,-71.987 -2.514,-2.778 -2.716,-6.9369 -0.353,-9.8432 l 0.702,-0.8636 c 2.235,-2.7492 6.103,-3.5793 9.243,-1.9383 8.666,4.5332 17.016,9.9811 24.899,16.3901 29.592,24.058 47.494,57.156 52.996,92.081 -28.395,-13.331 -57.924,-20.88 -86.633,-22.651 0.34,-0.394 0.686,-0.781 1.017,-1.188" /><path
         id="path28"
         style="fill:#941b11;fill-opacity:1;fill-rule:nonzero;stroke:none"
         d="m 191.26691,497.92363 c -17.461,21.477 -47.691,26.439 -70.85399,12.861 -3.232,-1.894 -7.345,-1.242 -9.708,1.664 l -0.703,0.864 c -2.23501,2.749 -2.257,6.705 -0.01,9.443 6.207,7.559 13.244,14.621 21.127,21.03 29.593,24.059 65.64699,34.828 100.95999,33.085 -18.846,-25.075 -32.26299,-52.442 -39.856,-80.186 -0.31799,0.414 -0.625,0.832 -0.956,1.239" /><path
         id="path30"
         style="fill:#941b11;fill-opacity:1;fill-rule:nonzero;stroke:none"
         d="m 466.02691,678.33863 c -26.499,4.601 -54.865,3.697 -83.244,-2.705 l 82.295,-101.223 c 12.058,26.476 18.733,54.06 19.639,80.94 0.378,11.242 -7.607,21.065 -18.69,22.988" /><path
         id="path32"
         style="fill:#9c3b29;fill-opacity:1;fill-rule:nonzero;stroke:none"
         d="m 397.62891,665.90963 c -0.105,0 -0.20999,0.005 -0.315,0.016 -0.80399,0.083 -1.57299,0.499 -2.091,1.134 -0.509,0.627 -0.759,1.465 -0.67599,2.269 0.085,0.821 0.49099,1.583 1.127,2.101 0.54899,0.446 1.249,0.693 1.952,0.693 0.112,0 0.223,-0.006 0.33499,-0.019 1.625,-0.168 2.933,-1.778 2.76601,-3.403 -0.085,-0.822 -0.498,-1.575 -1.13401,-2.091 -0.555,-0.452 -1.25,-0.7 -1.964,-0.7" /><path
         id="path34"
         style="fill:#9c3b29;fill-opacity:1;fill-rule:nonzero;stroke:none"
         d="m 408.41991,652.64863 c -0.903,0 -1.79899,0.392 -2.413,1.147 -1.081,1.33 -0.879,3.287 0.452,4.369 0.575,0.468 1.268,0.695 1.956,0.695 0.904,0 1.799,-0.391 2.41301,-1.146 1.08199,-1.33 0.88,-3.288 -0.45101,-4.369 -0.575,-0.468 -1.26799,-0.696 -1.957,-0.696" /><path
         id="path36"
         style="fill:#9c3b29;fill-opacity:1;fill-rule:nonzero;stroke:none"
         d="m 440.77391,612.85363 c -0.903,0 -1.799,0.392 -2.413,1.147 -1.081,1.33 -0.88,3.287 0.451,4.369 0.576,0.468 1.269,0.696 1.957,0.696 0.903,0 1.799,-0.392 2.412,-1.146 1.082,-1.331 0.88,-3.288 -0.45,-4.37 -0.576,-0.468 -1.268,-0.696 -1.957,-0.696 m -10.785,13.265 c -0.903,0 -1.798,0.392 -2.412,1.146 -1.081,1.331 -0.88,3.288 0.451,4.37 0.575,0.468 1.269,0.696 1.957,0.696 0.903,0 1.799,-0.392 2.412,-1.146 1.081,-1.331 0.88,-3.289 -0.45,-4.37 -0.576,-0.468 -1.269,-0.696 -1.958,-0.696 m -10.784,13.265 c -0.903,0 -1.799,0.391 -2.412,1.146 -1.083,1.331 -0.88,3.288 0.45,4.369 0.576,0.469 1.269,0.697 1.958,0.697 0.903,0 1.798,-0.392 2.412,-1.147 1.081,-1.33 0.88,-3.288 -0.451,-4.37 -0.576,-0.468 -1.268,-0.695 -1.957,-0.695" /><path
         id="path38"
         style="fill:#dfe0df;fill-opacity:1;fill-rule:nonzero;stroke:none"
         d="m 438.41291,603.71863 -58.032,71.38 c 0.801,0.189 1.601,0.354 2.402,0.535 l 57.075,-70.202 c -0.481,-0.573 -0.95799,-1.139 -1.445,-1.713" /><path
         id="path40"
         style="fill:#77a789;fill-opacity:1;fill-rule:nonzero;stroke:none"
         d="m 191.20891,497.99463 c -0.004,0.004 -0.008,0.009 -0.011,0.013 0.003,-0.004 0.007,-0.009 0.011,-0.013 m -0.065,0.079 c -0.007,0.008 -0.014,0.017 -0.021,0.026 0.007,-0.009 0.014,-0.017 0.021,-0.026 m -0.047,0.057 c -1.629,1.985 -3.373,3.82 -5.206,5.519 0.001,0.003 0.002,0.006 0.003,0.009 1.833,-1.699 3.574,-3.543 5.203,-5.528 m 40.975,78.74 c -0.407,0.02 -0.813,0.039 -1.221,0.056 0.408,-0.017 0.815,-0.035 1.222,-0.055 l -0.001,-10e-4" /><path
         id="path42"
         style="fill:#dfe0df;fill-opacity:1;fill-rule:nonzero;stroke:none"
         d="m 232.07891,576.87063 c -0.002,0 -0.005,0 -0.007,0 l 0.001,10e-4 c 0.002,0 0.004,0 0.006,0 l 0,0" /><path
         id="path44"
         style="fill:#9c3b29;fill-opacity:1;fill-rule:nonzero;stroke:none"
         d="m 192.22291,496.68463 c -0.31799,0.414 -0.625,0.832 -0.956,1.239 l 0,0 c -0.02,0.024 -0.039,0.047 -0.058,0.071 -0.004,0.004 -0.008,0.009 -0.011,0.013 -0.018,0.022 -0.036,0.044 -0.054,0.066 -0.007,0.009 -0.014,0.017 -0.021,0.026 -0.009,0.01 -0.017,0.02 -0.026,0.031 -1.629,1.985 -3.37,3.829 -5.203,5.528 8.324,25.392 21.239,50.299 38.479,73.386 0.131,0 0.261,0 0.391,0 2.031,0 4.06,-0.037 6.087,-0.118 0.408,-0.017 0.814,-0.036 1.221,-0.056 0.002,0 0.005,0 0.007,0 -17.705,-23.557 -30.619,-49.136 -38.413,-75.151 -0.502,-1.676 -0.984,-3.355 -1.443,-5.035" /><path
         id="path46"
         style="fill:#77a789;fill-opacity:1;fill-rule:nonzero;stroke:none"
         d="m 256.58391,416.73463 c -1.286,2.141 -2.725,4.223 -4.333,6.223 1.609,-2.001 3.055,-4.08 4.342,-6.222 -0.003,0 -0.006,0 -0.009,-0.001 m -4.377,6.279 c -0.001,0 -0.001,0.001 -0.002,0.001 l 0.002,-0.001 m -0.05,0.061 c -0.001,0.002 -0.002,0.003 -0.004,0.004 0.002,-10e-4 0.003,-0.002 0.004,-0.004 m -0.05,0.062 c -0.001,10e-4 -0.003,0.003 -0.004,0.005 0.001,-0.001 0.003,-0.004 0.004,-0.005 m 85.521,23.647 c 0.001,0.011 0.004,0.026 0.006,0.036 -0.002,-0.012 -0.004,-0.024 -0.006,-0.036 m 0.014,0.087 c 0.009,0.057 0.018,0.113 0.027,0.171 l 0,0 c -0.009,-0.057 -0.018,-0.114 -0.027,-0.171" /><path
         id="path48"
         style="fill:#9c3b29;fill-opacity:1;fill-rule:nonzero;stroke:none"
         d="m 256.59291,416.73563 c -1.28699,2.142 -2.733,4.221 -4.34199,6.222 -0.015,0.019 -0.029,0.037 -0.044,0.056 l -0.002,0.001 c -0.016,0.02 -0.032,0.04 -0.048,0.06 -0.001,0.002 -0.002,0.003 -0.004,0.004 -0.015,0.02 -0.031,0.039 -0.046,0.058 -0.001,10e-4 -0.003,0.004 -0.004,0.005 -0.017,0.02 -0.033,0.041 -0.05,0.061 l 0,0 c -0.33,0.406 -0.676,0.793 -1.015,1.186 2.614,0.162 5.23201,0.372 7.858,0.63 26.216,2.566 52.964,9.906 78.77301,22.023 -0.009,-0.058 -0.018,-0.114 -0.027,-0.171 -0.003,-0.017 -0.006,-0.034 -0.008,-0.051 -0.002,-0.01 -0.005,-0.025 -0.006,-0.036 -0.394,-2.469 -0.857,-4.928 -1.375,-7.376 -26.109,-12.155 -53.115,-19.708 -79.66,-22.672" /><path
         id="path50"
         style="fill:#941b11;fill-opacity:1;fill-rule:nonzero;stroke:none"
         d="m 202.29191,386.23763 c -38.344,-31.174 -114.521995,-34.516 -114.521995,-34.516 0,0 18.820995,73.89 57.165995,105.065 19.482,15.839 42.332,8.185 58.17,-11.297 15.839,-19.481 18.668,-43.412 -0.814,-59.252" /><path
         id="path52"
         style="fill:#ee9f22;fill-opacity:1;fill-rule:nonzero;stroke:none"
         d="m 199.53391,395.53763 c -15.646,-12.721 -48.151,-18.084 -60.87,-2.439 -12.72,15.644 -0.834,46.372 14.811,59.091 15.645,12.72 32.855,5.647 45.574,-9.997 12.72,-15.645 16.129,-33.937 0.485,-46.655" /><path
         id="path54"
         style="fill:#f8f8f8;fill-opacity:1;fill-rule:nonzero;stroke:none"
         d="m 198.08291,413.56363 c -9.258,-7.526 -28.741,-10.901 -36.268,-1.643 -7.527,9.258 -0.247,27.642 9.011,35.17 9.258,7.525 17.084,1.423 24.61001,-7.835 7.52699,-9.259 11.904,-18.165 2.647,-25.692" /><path
         id="path56"
         style="fill:#af412c;fill-opacity:1;fill-rule:nonzero;stroke:none"
         d="m 189.72091,486.60563 c -1.048,-4.709 0.176,-9.638 3.219,-13.383 l 35.239,-43.344 c 3.044,-3.743 7.62,-5.947 12.444,-5.883 3.454,0.047 6.926,0.185 10.409,0.4 l -58.804,72.283 c -0.91899,-3.353 -1.76,-6.711 -2.507,-10.073" /><path
         id="path58"
         style="fill:#dfe0df;fill-opacity:1;fill-rule:nonzero;stroke:none"
         d="m 197.55791,490.12663 -0.503,0.619 0,0 0.503,-0.619" /><path
         id="path60"
         style="fill:#9c3b29;fill-opacity:1;fill-rule:nonzero;stroke:none"
         d="m 189.39891,482.39763 c -0.039,0.71 -0.038,1.423 0.021,2.137 l 7.635,6.211 0.503,-0.619 0.534,-0.656 -8.693,-7.073" /><path
         id="path62"
         style="fill:#9c3b29;fill-opacity:1;fill-rule:nonzero;stroke:none"
         d="m 192.42291,473.93663 c -0.326,0.45 -0.627,0.91 -0.902,1.386 l 10.88,8.852 1.037,-1.276 -11.015,-8.962" /><path
         id="path64"
         style="fill:#9c3b29;fill-opacity:1;fill-rule:nonzero;stroke:none"
         d="m 197.72891,467.33363 -1.038,1.276 11.055,8.993 1.038,-1.275 -11.055,-8.994" /><path
         id="path66"
         style="fill:#9c3b29;fill-opacity:1;fill-rule:nonzero;stroke:none"
         d="m 203.07191,460.76063 -0.018,0.022 -1.01901,1.254 11.05701,8.995 1.038,-1.275 -11.058,-8.996" /><path
         id="path68"
         style="fill:#9c3b29;fill-opacity:1;fill-rule:nonzero;stroke:none"
         d="m 208.41591,454.18763 -0.682,0.839 -0.355,0.437 11.059,8.997 1.038,-1.276 -11.06,-8.997" /><path
         id="path70"
         style="fill:#dfe0df;fill-opacity:1;fill-rule:nonzero;stroke:none"
         d="m 224.79591,456.64563 -1.012,1.244 0,0 1.012,-1.244" /><path
         id="path72"
         style="fill:#9c3b29;fill-opacity:1;fill-rule:nonzero;stroke:none"
         d="m 213.75991,447.61463 -1.037,1.276 11.061,8.999 1.012,-1.244 0.026,-0.032 -11.062,-8.999" /><path
         id="path74"
         style="fill:#9c3b29;fill-opacity:1;fill-rule:nonzero;stroke:none"
         d="m 220.26291,442.07563 c -0.788,0 -1.463,0.134 -2.003,0.4 l 10.87,8.842 1.038,-1.275 -9.79199,-7.966 c -0.038,-0.001 -0.075,-0.001 -0.113,-0.001" /><path
         id="path76"
         style="fill:#81b290;fill-opacity:1;fill-rule:nonzero;stroke:none"
         d="m 240.41691,423.99463 c -4.748,0 -9.238,2.194 -12.238,5.884 l -10.802,13.286 0.001,0 1.436,-1.767 0.29,-0.356 9.075,-11.163 c 3,-3.69 7.49,-5.884 12.238,-5.884 0.068,0 0.137,0 0.206,0.001 l 0,0 c 3.457,0.046 6.929,0.177 10.415,0.393 l 0,0 c -3.486,-0.216 -6.958,-0.347 -10.415,-0.393 -0.069,-0.001 -0.138,-0.001 -0.206,-0.001" /><path
         id="path78"
         style="fill:#ededed;fill-opacity:1;fill-rule:nonzero;stroke:none"
         d="m 240.62291,423.99563 c 3.454,0.047 6.926,0.185 10.409,0.4 l -4.828,5.935 0,0 -1.03699,1.275 -5.137,6.314 -0.209,0.257 -4.98201,6.124 -0.363,0.447 -1.473,1.809 c 37.126,16.254 80.83,43.345 124.164,78.577 31.889,25.926 59.51701,52.956 81.246,78.585 l 25.65,-31.549 c 0.349,0.745 0.675,1.495 1.015,2.241 l -25.22,31.021 0,0 25.22,-31.021 c 12.058,26.476 18.733,54.06 19.639,80.94 0.003,0.088 0.006,0.175 0.008,0.262 -0.002,-0.135 -0.006,-0.27 -0.011,-0.405 -2.10299,-61.418 -34.26599,-126.499 -92.176,-173.58 -40.966,-33.306 -88.12,-52.143 -133.642,-56.609 -2.62599,-0.257 -5.245,-0.466 -7.86,-0.628 l 0,0 c 0.001,0 0.001,-10e-4 0.002,-0.002 -3.486,-0.216 -6.958,-0.347 -10.415,-0.393" /><path
         id="path80"
         style="fill:#a73f2b;fill-opacity:1;fill-rule:nonzero;stroke:none"
         d="m 465.07792,574.41063 -25.22001,31.021 c 17.034,20.289 30.336,39.665 39.08501,56.875 1.849,3.637 1.999,6.409 0.70399,8.007 3.275,-4.029 5.17,-9.179 5.078,-14.701 -0.002,-0.087 -0.005,-0.174 -0.008,-0.262 -0.906,-26.88 -7.581,-54.464 -19.639,-80.94 m -2.711,18.126 c -0.717,0 -1.426,-0.243 -1.986,-0.697 -0.635,-0.518 -1.042,-1.28 -1.134,-2.091 -0.075,-0.815 0.167,-1.643 0.684,-2.279 0.517,-0.636 1.279,-1.041 2.09,-1.134 0.098,-0.009 0.195,-0.014 0.293,-0.014 0.717,0 1.426,0.242 1.986,0.697 0.636,0.517 1.041,1.28 1.134,2.092 0.168,1.625 -1.148,3.244 -2.774,3.412 -0.098,0.009 -0.195,0.014 -0.293,0.014 m -10.812,13.263 c -0.689,0 -1.382,-0.228 -1.958,-0.696 -1.331,-1.082 -1.533,-3.038 -0.451,-4.369 0.614,-0.755 1.51,-1.147 2.413,-1.147 0.688,0 1.381,0.228 1.957,0.696 1.33,1.082 1.532,3.039 0.45,4.369 -0.613,0.756 -1.509,1.147 -2.411,1.147" /><path
         id="path82"
         style="fill:#963827;fill-opacity:1;fill-rule:nonzero;stroke:none"
         d="m 451.55892,599.58763 c -0.90301,0 -1.799,0.392 -2.41301,1.147 -1.082,1.331 -0.88,3.287 0.45101,4.369 0.576,0.468 1.269,0.696 1.95799,0.696 0.90201,0 1.798,-0.391 2.411,-1.147 1.082,-1.33 0.88,-3.287 -0.45,-4.369 -0.576,-0.468 -1.269,-0.696 -1.957,-0.696" /><path
         id="path84"
         style="fill:#963827;fill-opacity:1;fill-rule:nonzero;stroke:none"
         d="m 462.31391,586.32163 c -0.098,0 -0.195,0.005 -0.293,0.014 -0.811,0.093 -1.57299,0.498 -2.09,1.134 -0.517,0.636 -0.759,1.464 -0.684,2.279 0.092,0.811 0.49901,1.573 1.13401,2.091 0.55999,0.454 1.269,0.697 1.98599,0.697 0.098,0 0.19501,-0.005 0.293,-0.014 1.626,-0.168 2.94201,-1.787 2.77401,-3.412 -0.093,-0.812 -0.49801,-1.575 -1.13401,-2.092 -0.55999,-0.455 -1.269,-0.697 -1.986,-0.697" /><path
         id="path86"
         style="fill:#d6d6d6;fill-opacity:1;fill-rule:nonzero;stroke:none"
         d="m 464.06292,572.16963 -25.65,31.549 c 0.487,0.574 0.964,1.14 1.445,1.713 l 25.22,-31.021 c -0.34,-0.746 -0.666,-1.496 -1.015,-2.241" /><path
         id="path88"
         style="fill:#963827;fill-opacity:1;fill-rule:nonzero;stroke:none"
         d="m 251.03791,424.38863 0,0 c -9.9e-4,0.001 -9.9e-4,0.002 -0.002,0.002 2.615,0.162 5.234,0.371 7.86,0.628 -2.62599,-0.258 -5.244,-0.468 -7.858,-0.63" /><path
         id="path90"
         style="fill:#a73f2b;fill-opacity:1;fill-rule:nonzero;stroke:none"
         d="m 240.41691,423.99463 c -4.748,0 -9.238,2.194 -12.238,5.884 l -9.075,11.163 1.272,1.035 c 1.285,0.02 2.863,0.388 4.645,1.111 2.623,1.065 5.287,2.189 7.982,3.369 l 1.472,-1.809 -11.065,-9.002 1.038,-1.276 11.065,9.001 -0.674,0.83 4.98201,-6.124 -11.027,-8.972 c 0.373,-0.41 0.764,-0.798 1.17399,-1.164 l 10.89101,8.859 -0.829,1.02 5.136,-6.314 -8.696,-7.075 c 0.68799,-0.181 1.387,-0.326 2.09899,-0.412 l 7.635,6.212 4.828,-5.935 c -3.483,-0.215 -6.955,-0.353 -10.409,-0.4 l 0,0 c -0.069,-0.001 -0.138,-0.001 -0.206,-0.001 m -21.603,17.403 -1.436,1.767 0,0.001 c 0.233,-0.286 0.529,-0.516 0.882,-0.69 l -0.193,-0.158 0.747,-0.92" /><path
         id="path92"
         style="fill:#72a183;fill-opacity:1;fill-rule:nonzero;stroke:none"
         d="m 219.10391,441.04163 -0.29,0.356 0.29,-0.356 0,0" /><path
         id="path94"
         style="fill:#963827;fill-opacity:1;fill-rule:nonzero;stroke:none"
         d="m 219.10391,441.04163 -0.29,0.356 -0.747,0.92 0.193,0.158 c 0.54,-0.266 1.215,-0.4 2.003,-0.4 0.038,0 0.075,0 0.113,0.001 l -1.272,-1.035" /><path
         id="path96"
         style="fill:#d6d6d6;fill-opacity:1;fill-rule:nonzero;stroke:none"
         d="m 234.83891,444.30063 -0.364,0.447 0.001,0 0.363,-0.447" /><path
         id="path98"
         style="fill:#963827;fill-opacity:1;fill-rule:nonzero;stroke:none"
         d="m 224.44791,434.46963 -1.038,1.276 11.066,9.002 0.363,-0.447 0.674,-0.83 -11.065,-9.001" /><path
         id="path100"
         style="fill:#d6d6d6;fill-opacity:1;fill-rule:nonzero;stroke:none"
         d="m 240.02991,437.91963 -0.209,0.257 0,0 0.209,-0.257" /><path
         id="path102"
         style="fill:#963827;fill-opacity:1;fill-rule:nonzero;stroke:none"
         d="m 229.96791,428.04063 c -0.41,0.366 -0.80099,0.754 -1.17399,1.164 l 11.027,8.972 0.209,-0.257 0.829,-1.02 -10.89101,-8.859" /><path
         id="path104"
         style="fill:#d6d6d6;fill-opacity:1;fill-rule:nonzero;stroke:none"
         d="m 246.20391,430.33063 -1.038,1.275 0.001,0 1.037,-1.275" /><path
         id="path106"
         style="fill:#963827;fill-opacity:1;fill-rule:nonzero;stroke:none"
         d="m 238.56891,424.11863 c -0.71199,0.086 -1.411,0.231 -2.09899,0.412 l 8.697,7.075 1.03699,-1.275 -7.635,-6.212" /></g></g></svg>