<?xml version="1.0" encoding="UTF-8" standalone="no"?>
<svg
   xmlns:dc="http://purl.org/dc/elements/1.1/"
   xmlns:cc="http://creativecommons.org/ns#"
   xmlns:rdf="http://www.w3.org/1999/02/22-rdf-syntax-ns#"
   xmlns:svg="http://www.w3.org/2000/svg"
   xmlns="http://www.w3.org/2000/svg"
   height="400"
   width="400"
   xml:space="preserve"
   viewBox="0 0 399.99999 399.99999"
   y="0px"
   x="0px"
   id="Capa_1"
   version="1.1"><metadata
     id="metadata113"><rdf:RDF><cc:Work
         rdf:about=""><dc:format>image/svg+xml</dc:format><dc:type
           rdf:resource="http://purl.org/dc/dcmitype/StillImage" /><dc:title></dc:title></cc:Work></rdf:RDF></metadata><defs
     id="defs111" /><g
     transform="translate(0,-20.70401)"
     id="g79" /><g
     transform="translate(0,-20.70401)"
     id="g81" /><g
     transform="translate(0,-20.70401)"
     id="g83" /><g
     transform="translate(0,-20.70401)"
     id="g85" /><g
     transform="translate(0,-20.70401)"
     id="g87" /><g
     transform="translate(0,-20.70401)"
     id="g89" /><g
     transform="translate(0,-20.70401)"
     id="g91" /><g
     transform="translate(0,-20.70401)"
     id="g93" /><g
     transform="translate(0,-20.70401)"
     id="g95" /><g
     transform="translate(0,-20.70401)"
     id="g97" /><g
     transform="translate(0,-20.70401)"
     id="g99" /><g
     transform="translate(0,-20.70401)"
     id="g101" /><g
     transform="translate(0,-20.70401)"
     id="g103" /><g
     transform="translate(0,-20.70401)"
     id="g105" /><g
     transform="translate(0,-20.70401)"
     id="g107" /><g
     transform="matrix(0.80218929,0,0,0.80218929,-129.38598,-7.516771)"
     id="g4934" /><g
     transform="matrix(0.80218929,0,0,0.80218929,-129.38598,-7.516771)"
     id="g4936" /><g
     transform="matrix(0.80218929,0,0,0.80218929,-129.38598,-7.516771)"
     id="g4938" /><g
     transform="matrix(0.80218929,0,0,0.80218929,-129.38598,-7.516771)"
     id="g4940" /><g
     transform="matrix(0.80218929,0,0,0.80218929,-129.38598,-7.516771)"
     id="g4942" /><g
     transform="matrix(0.80218929,0,0,0.80218929,-129.38598,-7.516771)"
     id="g4944" /><g
     transform="matrix(0.80218929,0,0,0.80218929,-129.38598,-7.516771)"
     id="g4946" /><g
     transform="matrix(0.80218929,0,0,0.80218929,-129.38598,-7.516771)"
     id="g4948" /><g
     transform="matrix(0.80218929,0,0,0.80218929,-129.38598,-7.516771)"
     id="g4950" /><g
     transform="matrix(0.80218929,0,0,0.80218929,-129.38598,-7.516771)"
     id="g4952" /><g
     transform="matrix(0.80218929,0,0,0.80218929,-129.38598,-7.516771)"
     id="g4954" /><g
     transform="matrix(0.80218929,0,0,0.80218929,-129.38598,-7.516771)"
     id="g4956" /><g
     transform="matrix(0.80218929,0,0,0.80218929,-129.38598,-7.516771)"
     id="g4958" /><g
     transform="matrix(0.80218929,0,0,0.80218929,-129.38598,-7.516771)"
     id="g4960" /><g
     transform="matrix(0.80218929,0,0,0.80218929,-129.38598,-7.516771)"
     id="g4962" /><g
     transform="matrix(0.52948734,0,0,0.57238275,194.9426,78.969777)"
     id="g4765"><g
       id="g4655"><g
         id="g4657"><path
           style="fill:#b2b2b2;fill-opacity:1"
           d="M 289.26,69.466 C 281.583,33.274 259.649,8.598 249.778,3.663 c -22.209,-11.104 -29.611,6.58 -39.482,6.58 -9.871,0 -17.273,-17.685 -39.482,-6.58 -9.87,4.935 -31.805,29.611 -39.482,65.803 -7.677,36.192 78.964,6.58 78.964,6.58 0,0 86.641,29.612 78.964,-6.58 z"
           id="path4659" /></g><g
         id="g4661"><ellipse
           style="fill:#8f8f8f;fill-opacity:1"
           cx="210.29601"
           cy="121.736"
           rx="151.347"
           ry="55.932999"
           id="ellipse4663" /></g><g
         id="g4665"><path
           style="fill:#ffe1b2"
           d="m 121.247,162.233 c -9.864,-2.468 -16.326,2.805 -16.326,13.161 0,13.709 13.265,47.296 27.21,26.321 13.945,-20.975 -10.884,-39.482 -10.884,-39.482 z"
           id="path4667" /></g><g
         id="g4669"><path
           style="fill:#ffe1b2"
           d="m 297.67,162.233 c 10.767,-2.468 17.821,2.805 17.821,13.161 0,13.709 -14.479,47.296 -29.701,26.321 -15.222,-20.975 11.88,-39.482 11.88,-39.482 z"
           id="path4671" /></g><g
         id="g4673"><path
           style="fill:#ffd7a3"
           d="m 138.003,281.887 c 14.716,-9.475 13.07,-37.675 13.07,-44.255 l 118.446,0 c 0,6.58 -1.825,34.78 12.89,44.255 l -72.113,80.771 -72.293,-80.771 z"
           id="path4675" /></g><g
         id="g4677"><path
           style="fill:#fdc88e"
           d="m 256.358,310.016 26.051,-28.129 c -14.716,-9.474 -12.89,-37.675 -12.89,-44.255 l -118.446,0 c 8.498,24.433 64.707,66.352 105.285,72.384 z"
           id="path4679" /></g><g
         id="g4681"><path
           style="fill:#ff6953"
           d="m 361.643,420.592 c 10.903,0 19.741,-8.838 19.741,-19.741 l 0,-39.208 c 0,-28.954 -22.562,-59.864 -50.138,-68.687 l -41.168,-13.173 c -22.149,16.936 -53.802,40.039 -79.782,40.039 -25.98,0 -57.633,-23.103 -79.782,-40.039 l -41.168,13.173 c -27.576,8.823 -50.138,39.733 -50.138,68.687 l 0,39.208 c 0,10.903 8.838,19.741 19.741,19.741 l 302.694,0 z"
           id="path4683" /></g><g
         id="g4685"><path
           style="fill:#e95f43"
           d="m 380.955,404.922 -10.215,0 0,-13.835 10.644,0 0,-10.074 -10.644,0 0,-13.835 10.644,0 0,-5.536 c 0,-1.508 -0.097,-3.023 -0.217,-4.538 l -10.427,0 0,-13.834 7.738,0 c -1.041,-3.417 -2.337,-6.785 -3.884,-10.074 l -3.854,0 0,-7.216 c -3.667,-6.106 -8.144,-11.757 -13.224,-16.693 l -10.684,0 0,-8.691 c -4.914,-3.274 -10.146,-5.9 -15.585,-7.641 l -23.681,-7.578 -8.552,0 0,-2.737 -8.935,-2.859 c -0.37,0.283 -0.763,0.58 -1.139,0.866 l 0,4.73 -6.266,0 c -5.527,4.126 -11.465,8.395 -17.643,12.487 l 0,11.422 -13.835,0 0,-2.902 c -11.606,6.535 -23.519,11.538 -34.666,12.975 l 0.684,0 0,13.835 -13.835,0 0,-13.835 0.684,0 c -11.148,-1.437 -23.061,-6.441 -34.667,-12.976 l 0,2.902 -13.835,0 0,-11.422 c -6.178,-4.092 -12.116,-8.361 -17.643,-12.487 l -6.266,0 0,-4.73 c -0.375,-0.286 -0.769,-0.583 -1.139,-0.866 l -8.935,2.859 0,2.737 -8.552,0 -23.681,7.578 c -5.439,1.74 -10.671,4.366 -15.585,7.641 l 0,8.691 -10.683,0 c -5.08,4.936 -9.557,10.586 -13.224,16.693 l 0,7.216 -3.854,0 c -1.546,3.289 -2.842,6.656 -3.884,10.074 l 7.738,0 0,13.835 -10.428,0 c -0.12,1.515 -0.217,3.03 -0.217,4.538 l 0,5.536 10.644,0 0,13.835 -10.644,0 0,10.074 10.644,0 0,13.835 -10.214,0 c 0.822,3.915 2.811,7.388 5.577,10.074 l 4.637,0 0,3.278 c 2.734,1.431 5.797,2.318 9.097,2.318 l 0.978,0 0,-5.596 13.835,0 0,5.596 10.075,0 0,-5.596 13.833,0 0,5.596 10.074,0 0,-5.596 13.835,0 0,5.596 10.074,0 0,-5.596 13.835,0 0,5.596 10.074,0 0,-5.596 13.835,0 0,5.596 10.075,0 0,-5.596 13.835,0 0,5.596 10.074,0 0,-5.596 13.835,0 0,5.596 10.074,0 0,-5.596 13.835,0 0,5.596 10.074,0 0,-5.596 13.835,0 0,5.596 10.074,0 0,-5.596 13.835,0 0,5.596 10.074,0 0,-5.596 13.835,0 0,5.596 10.074,0 0,-5.596 13.835,0 0,5.596 10.075,0 0,-5.596 13.835,0 0,5.596 0.978,0 c 3.3,0 6.363,-0.887 9.097,-2.318 l 0,-3.278 4.637,0 c 2.76,-2.686 4.75,-6.159 5.572,-10.074 z m -307.194,0 -13.835,0 0,-13.835 13.835,0 0,13.835 z m 0,-23.908 -13.835,0 0,-13.835 13.835,0 0,13.835 z m 0,-23.909 -13.835,0 0,-13.835 13.835,0 0,13.835 z m 0,-23.909 -13.835,0 0,-13.835 13.835,0 0,13.835 z m 23.909,71.726 -13.835,0 0,-13.835 13.835,0 0,13.835 z m 0,-23.908 -13.835,0 0,-13.835 13.835,0 0,13.835 z m 0,-23.909 -13.835,0 0,-13.835 13.835,0 0,13.835 z m 0,-23.909 -13.835,0 0,-13.835 13.835,0 0,13.835 z m 0,-23.909 -13.835,0 0,-13.835 13.835,0 0,13.835 z m 23.909,95.635 -13.835,0 0,-13.835 13.835,0 0,13.835 z m 0,-23.908 -13.835,0 0,-13.835 13.835,0 0,13.835 z m 0,-23.909 -13.835,0 0,-13.835 13.835,0 0,13.835 z m 0,-23.909 -13.835,0 0,-13.835 13.835,0 0,13.835 z m 0,-23.909 -13.835,0 0,-13.835 13.835,0 0,13.835 z m 23.908,95.635 -13.835,0 0,-13.835 13.835,0 0,13.835 z m 0,-23.908 -13.835,0 0,-13.835 13.835,0 0,13.835 z m 0,-23.909 -13.835,0 0,-13.835 13.835,0 0,13.835 z m 0,-23.909 -13.835,0 0,-13.835 13.835,0 0,13.835 z m 0,-23.909 -13.835,0 0,-13.835 13.835,0 0,13.835 z m 23.909,95.635 -13.835,0 0,-13.835 13.835,0 0,13.835 z m 0,-23.908 -13.835,0 0,-13.835 13.835,0 0,13.835 z m 0,-23.909 -13.835,0 0,-13.835 13.835,0 0,13.835 z m 0,-23.909 -13.835,0 0,-13.835 13.835,0 0,13.835 z m 23.909,71.726 -13.835,0 0,-13.835 13.835,0 0,13.835 z m 0,-23.908 -13.835,0 0,-13.835 13.835,0 0,13.835 z m 0,-23.909 -13.835,0 0,-13.835 13.835,0 0,13.835 z m 0,-23.909 -13.835,0 0,-13.835 13.835,0 0,13.835 z m 23.908,71.726 -13.835,0 0,-13.835 13.835,0 0,13.835 z m 0,-23.908 -13.835,0 0,-13.835 13.835,0 0,13.835 z m 0,-23.909 -13.835,0 0,-13.835 13.835,0 0,13.835 z m 23.909,47.817 -13.835,0 0,-13.835 13.835,0 0,13.835 z m 0,-23.908 -13.835,0 0,-13.835 13.835,0 0,13.835 z m 0,-23.909 -13.835,0 0,-13.835 13.835,0 0,13.835 z m 0,-23.909 -13.835,0 0,-13.835 13.835,0 0,13.835 z m 23.909,71.726 -13.835,0 0,-13.835 13.835,0 0,13.835 z m 0,-23.908 -13.835,0 0,-13.835 13.835,0 0,13.835 z m 0,-23.909 -13.835,0 0,-13.835 13.835,0 0,13.835 z m 0,-23.909 -13.835,0 0,-13.835 13.835,0 0,13.835 z m 23.909,71.726 -13.835,0 0,-13.835 13.835,0 0,13.835 z m 0,-23.908 -13.835,0 0,-13.835 13.835,0 0,13.835 z m 0,-23.909 -13.835,0 0,-13.835 13.835,0 0,13.835 z m 0,-23.909 -13.835,0 0,-13.835 13.835,0 0,13.835 z m 0,-23.909 -13.835,0 0,-13.835 13.835,0 0,13.835 z m 23.908,95.635 -13.835,0 0,-13.835 13.835,0 0,13.835 z m 0,-23.908 -13.835,0 0,-13.835 13.835,0 0,13.835 z m 0,-23.909 -13.835,0 0,-13.835 13.835,0 0,13.835 z m 0,-23.909 -13.835,0 0,-13.835 13.835,0 0,13.835 z m 0,-23.909 -13.835,0 0,-13.835 13.835,0 0,13.835 z m 23.909,95.635 -13.835,0 0,-13.835 13.835,0 0,13.835 z m 0,-23.908 -13.835,0 0,-13.835 13.835,0 0,13.835 z m 0,-23.909 -13.835,0 0,-13.835 13.835,0 0,13.835 z m 0,-23.909 -13.835,0 0,-13.835 13.835,0 0,13.835 z m 0,-23.909 -13.835,0 0,-13.835 13.835,0 0,13.835 z m 23.909,95.635 -13.835,0 0,-13.835 13.835,0 0,13.835 z m 0,-23.908 -13.835,0 0,-13.835 13.835,0 0,13.835 z m 0,-23.909 -13.835,0 0,-13.835 13.835,0 0,13.835 z m 0,-23.909 -13.835,0 0,-13.835 13.835,0 0,13.835 z"
           id="path4687" /></g><g
         id="g4689"><path
           style="fill:#8f8f8f;fill-opacity:1"
           d="m 210.296,319.821 -27.456,27.456 c -2.859,2.859 -7.596,2.487 -9.975,-0.783 l -48.113,-66.156 15.326,-15.326 c 2.475,-2.475 6.454,-2.579 9.055,-0.238 l 61.163,55.047 z"
           id="path4691" /></g><g
         id="g4693"><path
           style="fill:#8f8f8f;fill-opacity:1"
           d="m 210.296,319.821 27.456,27.456 c 2.859,2.859 7.596,2.487 9.975,-0.783 l 48.113,-66.156 -15.326,-15.326 c -2.475,-2.475 -6.454,-2.579 -9.055,-0.238 l -61.163,55.047 z"
           id="path4695" /></g><g
         id="g4697"><path
           style="fill:#ffe1b2"
           d="m 122.275,117.737 c -1.539,9.309 -1.623,20.502 -1.623,33.803 0,52.696 29.526,118.446 89.645,118.446 60.119,0 89.645,-65.75 89.645,-118.446 0,-13.302 -0.084,-24.494 -1.623,-33.803 -24.117,-8.127 -54.708,-13 -88.021,-13 -33.313,0 -63.907,4.872 -88.023,13 z"
           id="path4699" /></g><g
         id="g4701"><path
           style="fill:#a7795e"
           d="m 300.278,128.382 c -5.267,-6.759 -10.916,-13.704 -10.916,-13.704 l 0,6.58 c 1.632,59.634 -19.588,85.544 -19.588,85.544 l -27.038,3.027 c -21.086,2.361 -42.366,2.361 -63.452,0 l -27.038,-3.027 c 0,0 -21.22,-25.91 -19.588,-85.544 l 0,-6.58 c 0,0 -5.649,6.944 -10.916,13.704 -1.372,5.869 -3.571,12.25 -3.571,19.254 0,52.696 31.536,128.671 92.839,128.671 61.303,0 91.41,-75.975 91.41,-128.671 10e-4,-7.004 -0.769,-13.385 -2.142,-19.254 z m -108.856,94.049 39.176,0 c 5.371,0 9.976,3.273 11.982,7.944 -7.233,3.172 -18.335,5.216 -30.849,5.216 -13.213,0 -24.826,-2.284 -31.995,-5.765 2.126,-4.364 6.536,-7.395 11.686,-7.395 z"
           id="path4703" /></g><g
         id="g4705"><path
           style="fill:#543d38"
           d="m 213.792,216.577 c 0,-8.689 -8.431,-10.656 -13.983,-8.55 -10.179,3.861 -21.386,14.632 -30.845,7.971 0,0 3.29,13.903 8.841,13.903 11.104,-0.001 35.987,1.448 35.987,-13.324 z"
           id="path4707" /></g><g
         id="g4709"><path
           style="fill:#543d38"
           d="m 211.131,216.577 c 0,-8.689 8.431,-10.656 13.983,-8.55 10.179,3.861 21.386,14.632 30.845,7.971 0,0 -3.29,13.903 -8.841,13.903 -11.104,-0.001 -35.987,1.448 -35.987,-13.324 z"
           id="path4711" /></g><g
         id="g4713"><path
           style="fill:#c55f54"
           d="m 322.162,289.191 -26.321,-8.423 0,80.969 c 0,3.012 -1.999,5.675 -4.923,6.395 -22.275,5.486 -50.216,8.77 -80.621,8.77 -30.405,0 -58.346,-3.284 -80.621,-8.77 -2.925,-0.72 -4.923,-3.383 -4.923,-6.395 l 0,-80.969 -26.321,8.423 0,131.401 223.731,0 0,-131.401 z"
           id="path4715" /></g><g
         id="g4717"><path
           style="fill:#543d38"
           d="m 118.613,163.084 17.769,3.276 c 0,0 6.939,-38.912 10.659,-55.078 -9.705,1.937 -18.858,4.267 -27.202,7.003 -1.582,9.309 -1.668,20.502 -1.668,33.803 10e-4,3.612 0.157,7.288 0.442,10.996 z"
           id="path4719" /></g><g
         id="g4721"><path
           style="fill:#543d38"
           d="m 301.979,163.084 -17.769,3.276 c 0,0 -6.939,-38.912 -10.659,-55.078 9.705,1.937 18.858,4.267 27.202,7.003 1.582,9.309 1.668,20.502 1.668,33.803 0,3.612 -0.157,7.288 -0.442,10.996 z"
           id="path4723" /></g><g
         id="g4725"><path
           style="fill:#543d38"
           d="m 248.956,127.357 15.789,-17.973 c -16.762,-2.964 -35.121,-4.647 -54.449,-4.647 -11.763,0 -23.16,0.637 -34.079,1.781 10.322,-0.706 50.941,4.764 72.739,20.839 z"
           id="path4727" /></g></g><g
       id="g4729" /><g
       id="g4731" /><g
       id="g4733" /><g
       id="g4735" /><g
       id="g4737" /><g
       id="g4739" /><g
       id="g4741" /><g
       id="g4743" /><g
       id="g4745" /><g
       id="g4747" /><g
       id="g4749" /><g
       id="g4751" /><g
       id="g4753" /><g
       id="g4755" /><g
       id="g4757" /></g><g
     transform="matrix(0.54371959,0,0,0.54455755,-23.589799,78.202687)"
     id="g4820"><g
       id="g4822"><path
         id="path4824"
         d="m 147.613,280.352 c 14.716,-9.475 13.07,-37.675 13.07,-44.255 l 118.446,0 c 0,6.58 -1.825,34.78 12.89,44.255 l -72.113,80.771 -72.293,-80.771 z"
         style="fill:#ffd7a3" /></g><g
       id="g4826"><path
         id="path4828"
         d="m 265.969,308.481 26.051,-28.129 c -14.716,-9.474 -12.89,-37.675 -12.89,-44.255 l -118.447,0 c 8.499,24.432 64.707,66.352 105.286,72.384 z"
         style="fill:#fdc88e" /></g><g
       id="g4830"><path
         id="path4832"
         d="m 312.031,150.553 c 0,52.696 -30.343,118.446 -92.124,118.446 -61.781,0 -92.124,-65.75 -92.124,-118.446 0,-52.696 41.246,-72.384 92.124,-72.384 50.878,0 92.124,19.688 92.124,72.384 z"
         style="fill:#ffe1b2" /></g><g
       id="g4834"><path
         id="path4836"
         d="m 371.254,440.087 c 10.903,0 19.741,-8.838 19.741,-19.741 l 0,-63.463 c 0,-28.954 -22.562,-59.864 -50.138,-68.687 l -41.168,-13.173 c -22.149,16.936 -53.802,40.039 -79.782,40.039 -25.98,0 -57.633,-23.103 -79.782,-40.039 l -41.168,13.173 c -27.576,8.823 -50.138,39.733 -50.138,68.687 l 0,63.463 c 0,10.903 8.838,19.741 19.741,19.741 l 302.694,0 z"
         style="fill:#7ed2e7" /></g><g
       id="g4838"><path
         id="path4840"
         d="m 180.424,38.687 c -6.169,0 -6.875,0 -13.161,0 -25.439,0 -46.199,20.317 -49.901,45.486 -5.484,37.288 10.419,78.939 10.419,78.939 0,0 8.225,-54.811 44.417,-70.714 19.315,-8.486 8.226,-53.711 8.226,-53.711 z"
         style="fill:#aa4400" /></g><g
       id="g4842"><path
         id="path4844"
         d="M 157.668,39.705 C 234.712,32.902 257.469,16.04 259.937,0 c 63.14,32.627 75.125,125.3 52.094,163.112 L 292.29,117.651 c 0,0 -81.157,19.165 -138.187,-16.751"
         style="fill:#aa4400" /></g><g
       id="g4846"><path
         id="path4848"
         d="m 219.906,315.061 -32.902,32.902 -52.643,-72.384 15.326,-15.326 c 2.475,-2.475 6.454,-2.579 9.055,-0.238 l 61.164,55.046 z"
         style="fill:#67bed8" /></g><g
       id="g4850"><path
         id="path4852"
         d="m 219.906,315.061 32.902,32.902 52.643,-72.384 -15.326,-15.326 c -2.475,-2.475 -6.454,-2.579 -9.055,-0.238 l -61.164,55.046 z"
         style="fill:#67bed8" /></g><g
       id="g4854"><path
         id="path4856"
         d="m 233.067,334.802 c 0,3.619 -2.961,6.58 -6.58,6.58 l -13.161,0 c -3.619,0 -6.58,-2.961 -6.58,-6.58 l 0,-13.161 c 0,-3.619 2.961,-6.58 6.58,-6.58 l 13.161,0 c 3.619,0 6.58,2.961 6.58,6.58 l 0,13.161 z"
         style="fill:#ff6953" /></g><g
       id="g4858"><path
         id="path4860"
         d="m 213.326,321.641 -36.89,-15.81 c -4.342,-1.861 -9.172,1.324 -9.172,6.048 l 0,32.684 c 0,4.724 4.83,7.909 9.172,6.048 l 36.89,-15.81 0,-13.16 z"
         style="fill:#ff6953" /></g><g
       id="g4862"><path
         id="path4864"
         d="m 226.487,321.641 36.89,-15.81 c 4.342,-1.861 9.172,1.324 9.172,6.048 l 0,32.684 c 0,4.724 -4.83,7.909 -9.172,6.048 l -36.89,-15.81 0,-13.16 z"
         style="fill:#ff6953" /></g><g
       id="g4866"><circle
         id="circle4868"
         r="6.5799999"
         cy="374.284"
         cx="219.90601"
         style="fill:#67bed8" /></g><g
       id="g4870"><circle
         id="circle4872"
         r="6.5799999"
         cy="407.185"
         cx="219.90601"
         style="fill:#67bed8" /></g><g
       id="g4874"><path
         id="path4876"
         d="m 130.947,163.714 c -9.864,-2.468 -16.326,2.805 -16.326,13.161 0,13.709 13.265,47.296 27.21,26.321 13.945,-20.975 -10.884,-39.482 -10.884,-39.482 z"
         style="fill:#ffe1b2" /></g><g
       id="g4878"><path
         id="path4880"
         d="m 307.371,163.714 c 10.767,-2.468 17.821,2.805 17.821,13.161 0,13.709 -14.479,47.296 -29.701,26.321 -15.222,-20.975 11.88,-39.482 11.88,-39.482 z"
         style="fill:#ffe1b2" /></g><g
       id="g4882"><path
         id="path4884"
         d="m 252.808,439.853 120.764,0 c 9.797,-1.16 17.423,-9.399 17.423,-19.507 l 0,-63.464 c 0,-28.954 -22.562,-59.864 -50.138,-68.687 l -35.877,-11.481 -0.002,0 -52.17,163.139 z"
         style="fill:#ff6953" /></g><g
       id="g4886"><path
         id="path4888"
         d="m 134.835,276.715 -0.002,0 -35.877,11.48 c -27.576,8.823 -50.138,39.733 -50.138,68.687 l 0,63.464 c 0,10.109 7.627,18.347 17.423,19.507 l 120.764,0 -52.17,-163.138 z"
         style="fill:#ff6953" /></g><g
       id="g4890"><g
         id="g4892"><path
           id="path4894"
           d="m 87.546,293.284 c -4.248,2.409 -8.302,5.296 -12.064,8.61 l 0,137.959 12.064,0 0,-146.569 z"
           style="fill:#c55f54" /></g><g
         id="g4896"><polygon
           id="polygon4898"
           points="102.146,287.174 102.146,439.853 114.21,439.853 114.21,283.314 "
           style="fill:#c55f54" /></g><g
         id="g4900"><path
           id="path4902"
           d="m 60.882,318.919 c -7.498,11.606 -12.064,24.974 -12.064,37.964 l 0,63.464 c 0,8.156 5.002,15.023 12.064,18.009 l 0,-119.437 z"
           style="fill:#c55f54" /></g><g
         id="g4904"><polygon
           id="polygon4906"
           points="128.81,278.643 128.81,439.853 140.874,439.853 140.874,295.598 134.835,276.715 134.833,276.715 "
           style="fill:#c55f54" /></g><g
         id="g4908"><polygon
           id="polygon4910"
           points="155.474,341.254 155.474,439.853 167.538,439.853 167.538,378.979 "
           style="fill:#c55f54" /></g></g><g
       id="g4912"><g
         id="g4914"><path
           id="path4916"
           d="m 352.541,293.284 c 4.248,2.409 8.302,5.296 12.064,8.61 l 0,137.959 -12.064,0 0,-146.569 z"
           style="fill:#c55f54" /></g><g
         id="g4918"><polygon
           id="polygon4920"
           points="337.941,287.174 337.941,439.853 325.877,439.853 325.877,283.314 "
           style="fill:#c55f54" /></g><g
         id="g4922"><path
           id="path4924"
           d="m 379.205,318.919 c 7.498,11.606 12.064,24.974 12.064,37.964 l 0,63.464 c 0,8.156 -5.002,15.023 -12.064,18.009 l 0,-119.437 z"
           style="fill:#c55f54" /></g><g
         id="g4926"><polygon
           id="polygon4928"
           points="311.277,278.643 311.277,439.853 299.213,439.853 299.213,295.598 305.252,276.715 305.254,276.715 "
           style="fill:#c55f54" /></g><g
         id="g4930"><polygon
           id="polygon4932"
           points="284.613,341.254 284.613,439.853 272.549,439.853 272.549,378.979 "
           style="fill:#c55f54" /></g></g></g><g
     transform="matrix(0.67779463,0,0,0.67883922,62.899057,53.518997)"
     id="g3"><g
       id="g5"><g
         id="g7"><path
           id="path9"
           d="m 269.575,12.724 -46.062,250.052 32.902,6.58 c 69.641,-50.997 99.526,-256.632 13.16,-256.632 z"
           style="fill:#80362d" /></g><g
         id="g11"><path
           id="path13"
           d="m 269.575,12.724 c -11.516,-6.992 -72.293,-24.749 -118.446,0 -56.755,30.434 -106.382,139.283 -26.321,250.052 0.114,0.157 59.223,-6.58 59.223,-6.58 L 269.575,12.724 Z"
           style="fill:#80362d" /></g><g
         id="g15"><path
           id="path17"
           d="m 256.772,232.084 -0.358,0 0,-15.37 -92.124,0 0,15.354 c 0,15.042 -0.063,31.392 -13.161,41.282 l 0,147.354 59.223,0 c 0,0 31.011,0 59.223,0 l 0,-147.584 c -12.763,-9.915 -12.803,-26.123 -12.803,-41.036 z"
           style="fill:#ffd7a3" /></g><g
         id="g19"><path
           id="path21"
           d="m 210.352,354.9 c -14.15,0 -27.502,-1.876 -39.482,-5.134 l 0,70.937 92.124,0 0,-75.279 c -14.928,5.957 -33.053,9.476 -52.642,9.476 z"
           style="fill:#545465" /></g><g
         id="g23"><path
           id="path25"
           d="m 262.994,302.258 c 2.401,0.655 4.563,1.004 6.58,1.174 l 0,-30.312 c -12.762,-9.915 -12.803,-26.124 -12.803,-41.037 l -0.009,-0.382 0,-15.37 -72.732,0.382 -19.741,6.58 c 13.161,14.807 53.466,66.627 98.705,78.965 z"
           style="fill:#fdc88e" /></g><g
         id="g27"><path
           id="path29"
           d="m 302.476,131.169 c 0,52.696 -52.408,118.446 -92.124,118.446 -39.716,0 -92.124,-65.75 -92.124,-118.446 0,-52.696 41.246,-72.384 92.124,-72.384 50.878,0 92.124,19.688 92.124,72.384 z"
           style="fill:#ffe1b2" /></g><g
         id="g31"><path
           id="path33"
           d="m 223.512,25.884 c -3.697,0 -15.701,4.154 -25.512,7.794 l -0.809,-1.214 c 0,0 -1.354,1.064 -3.698,2.908 -5.457,2.072 -9.462,3.672 -9.462,3.672 l 1.539,2.566 c -24.976,19.678 -81.96,64.693 -87.084,69.818 -6.58,6.58 39.482,174.464 39.482,78.964 0,-79.786 44.327,-95.587 85.544,-105.285 18.644,-4.387 24.128,-15.354 26.321,-26.321 2.194,-10.967 -19.74,-32.902 -26.321,-32.902 z"
           style="fill:#80362d" /></g><g
         id="g35"><path
           id="path37"
           d="m 243.253,65.366 c 12.064,43.32 36.192,62.924 58.812,68.682 12.395,3.155 6.992,-35.78 6.992,-35.78 0,0 -17.548,-44.966 -19.741,-46.062 -2.193,-1.097 -19.741,-39.482 -19.741,-39.482 l -39.482,32.902 13.16,19.74 z"
           style="fill:#80362d" /></g><g
         id="g39"><path
           id="path41"
           d="m 158.355,265.465 c -6.163,10.013 -18.728,17.052 -44.514,17.052 l -2.193,0 c -39.976,0 -72.384,32.407 -72.384,72.384 l 0,46.062 c 0,10.902 8.838,19.741 19.741,19.741 l 135.028,0 -35.678,-155.239 z"
           style="fill:#e4ebf0" /></g><g
         id="g43"><path
           id="path45"
           d="m 262.349,265.465 c 6.163,10.013 18.728,17.052 44.514,17.052 l 2.193,0 c 39.976,0 72.384,32.407 72.384,72.384 l 0,46.062 c 0,10.902 -8.838,19.741 -19.741,19.741 l -135.028,0 35.678,-155.239 z"
           style="fill:#e4ebf0" /></g><g
         id="g47"><circle
           id="circle49"
           r="19.740999"
           cy="387.802"
           cx="111.647"
           style="fill:#d0d7dc" /></g><g
         id="g51"><path
           id="path53"
           d="m 333.783,410.338 -8.135,-5.591 c 7.229,-10.518 11.376,-26.288 11.376,-43.267 0,-29.427 -12.807,-54.288 -27.966,-54.288 -15.159,0 -27.966,24.861 -27.966,54.288 0,16.979 4.146,32.749 11.376,43.267 l -8.135,5.591 c -8.331,-12.123 -13.111,-29.931 -13.111,-48.858 0,-35.977 16.619,-64.158 37.837,-64.158 21.217,0 37.837,28.182 37.837,64.158 -0.003,18.927 -4.782,36.735 -13.113,48.858 z"
           style="fill:#d0d7dc" /></g><g
         id="g55"><circle
           id="circle57"
           r="6.5799999"
           cy="407.543"
           cx="289.31601"
           style="fill:#545465" /></g><g
         id="g59"><circle
           id="circle61"
           r="6.5799999"
           cy="407.543"
           cx="328.798"
           style="fill:#545465" /></g><g
         id="g63"><path
           id="path65"
           d="m 111.647,379.577 c -2.726,0 -4.935,-2.209 -4.935,-4.935 0,-85.274 40.304,-108.646 42.02,-109.599 2.387,-1.329 5.388,-0.466 6.71,1.917 1.321,2.374 0.472,5.367 -1.892,6.698 -0.484,0.28 -36.968,22.172 -36.968,100.984 0,2.726 -2.209,4.935 -4.935,4.935 z"
           style="fill:#d0d7dc" /></g><g
         id="g67"><circle
           id="circle69"
           r="10.419"
           cy="387.802"
           cx="111.647"
           style="fill:#b2b9bf" /></g><g
         id="g71"><path
           id="path73"
           d="m 309.057,307.195 c -2.034,0 -3.938,-1.268 -4.654,-3.295 -4.288,-12.15 -11.268,-17.291 -11.337,-17.339 -2.233,-1.563 -2.776,-4.641 -1.213,-6.874 1.563,-2.23 4.636,-2.774 6.874,-1.213 0.389,0.273 9.585,6.842 14.984,22.143 0.908,2.569 -0.442,5.388 -3.012,6.296 -0.544,0.19 -1.098,0.282 -1.642,0.282 z"
           style="fill:#d0d7dc" /></g></g><g
       id="g75"><path
         id="path77"
         d="m 292.676,131.771 c 10.767,-2.468 17.821,2.805 17.821,13.161 0,13.709 -14.479,47.296 -29.701,26.321 -15.222,-20.975 11.88,-39.482 11.88,-39.482 z"
         style="fill:#ffe1b2" /></g></g></svg>