<?xml version="1.0" encoding="UTF-8" standalone="no"?>
<!-- Generator: Adobe Illustrator 19.0.0, SVG Export Plug-In . SVG Version: 6.00 Build 0)  -->

<svg
   xmlns:dc="http://purl.org/dc/elements/1.1/"
   xmlns:cc="http://creativecommons.org/ns#"
   xmlns:rdf="http://www.w3.org/1999/02/22-rdf-syntax-ns#"
   xmlns:svg="http://www.w3.org/2000/svg"
   xmlns="http://www.w3.org/2000/svg"
   xmlns:sodipodi="http://sodipodi.sourceforge.net/DTD/sodipodi-0.dtd"
   xmlns:inkscape="http://www.inkscape.org/namespaces/inkscape"
   version="1.1"
   id="Layer_1"
   x="0px"
   y="0px"
   viewBox="0 0 368.059 368.059"
   style="enable-background:new 0 0 368.059 368.059;"
   xml:space="preserve"
   inkscape:version="0.91 r13725"
   sodipodi:docname="intructor.svg"><metadata
     id="metadata45"><rdf:RDF><cc:Work
         rdf:about=""><dc:format>image/svg+xml</dc:format><dc:type
           rdf:resource="http://purl.org/dc/dcmitype/StillImage" /><dc:title></dc:title></cc:Work></rdf:RDF></metadata><defs
     id="defs43" /><sodipodi:namedview
     pagecolor="#ffffff"
     bordercolor="#666666"
     borderopacity="1"
     objecttolerance="10"
     gridtolerance="10"
     guidetolerance="10"
     inkscape:pageopacity="0"
     inkscape:pageshadow="2"
     inkscape:window-width="1366"
     inkscape:window-height="715"
     id="namedview41"
     showgrid="false"
     inkscape:zoom="0.45339797"
     inkscape:cx="-155.21707"
     inkscape:cy="162.17648"
     inkscape:window-x="0"
     inkscape:window-y="0"
     inkscape:window-maximized="1"
     inkscape:current-layer="Layer_1" /><g
     id="XMLID_228_"><rect
       height="155"
       width="20"
       style="fill:#941b11;fill-opacity:1"
       y="119.459"
       x="14.029"
       id="XMLID_229_" /></g><g
     id="XMLID_230_"><path
       inkscape:connector-curvature="0"
       d="m 184.029,347.287 c -6.813,0 -13.457,-1.329 -19.746,-3.949 L 85.624,310.564 c -19.193,-7.997 -31.595,-26.6 -31.595,-47.392 l 0,-167.44 260,0 0,167.439 c 0,20.792 -12.401,39.395 -31.595,47.392 l -78.659,32.774 c -6.289,2.621 -12.932,3.95 -19.746,3.95 z m -110,-231.555 0,147.439 c 0,12.692 7.57,24.048 19.286,28.93 l 78.659,32.774 c 3.84,1.6 7.896,2.411 12.055,2.411 4.159,0 8.215,-0.811 12.055,-2.411 l 78.659,-32.774 c 11.716,-4.881 19.286,-16.237 19.286,-28.93 l 0,-147.439 -220,0 z"
       style="fill:#941b11;fill-opacity:1"
       id="XMLID_231_" /></g><g
     id="XMLID_235_"><path
       inkscape:connector-curvature="0"
       d="M 178.912,31.883 16.837,108.655 c -9.116,4.318 -9.116,17.289 0,21.607 l 162.075,76.772 c 3.239,1.534 6.996,1.534 10.235,0 l 162.075,-76.772 c 9.116,-4.318 9.116,-17.289 0,-21.607 L 189.147,31.883 c -3.239,-1.534 -6.996,-1.534 -10.235,0 z"
       style="fill:#f19c99;fill-opacity:1"
       id="XMLID_236_" /><path
       inkscape:connector-curvature="0"
       d="m 184.029,218.185 c -3.229,0 -6.479,-0.73 -9.397,-2.113 L 12.556,139.3 C 4.811,135.631 0,128.029 0,119.459 0,110.889 4.811,103.287 12.556,99.618 L 174.631,22.846 c 5.84,-2.765 12.958,-2.765 18.796,0 l 162.076,76.772 c 7.745,3.669 12.556,11.271 12.556,19.841 0,8.57 -4.811,16.172 -12.556,19.841 l -162.075,76.772 c -2.92,1.383 -6.169,2.113 -9.399,2.113 z m 0,-177.453 c -0.292,0 -0.573,0.063 -0.837,0.188 L 21.118,117.693 c -0.742,0.351 -1.118,0.945 -1.118,1.766 0,0.821 0.376,1.415 1.118,1.767 l 162.075,76.772 c 0.525,0.25 1.146,0.25 1.673,0 L 346.94,121.226 c 0.742,-0.351 1.118,-0.945 1.118,-1.766 0,-0.821 -0.376,-1.415 -1.118,-1.767 L 184.865,40.92 c -0.262,-0.125 -0.544,-0.188 -0.836,-0.188 z"
       style="fill:#941b11;fill-opacity:1"
       id="XMLID_237_" /></g><g
     id="g11" /><g
     id="g13" /><g
     id="g15" /><g
     id="g17" /><g
     id="g19" /><g
     id="g21" /><g
     id="g23" /><g
     id="g25" /><g
     id="g27" /><g
     id="g29" /><g
     id="g31" /><g
     id="g33" /><g
     id="g35" /><g
     id="g37" /><g
     id="g39" /></svg>