<?xml version="1.0" encoding="UTF-8" standalone="no"?>
<!-- Generator: Adobe Illustrator 19.0.0, SVG Export Plug-In . SVG Version: 6.00 Build 0)  -->

<svg
   xmlns:dc="http://purl.org/dc/elements/1.1/"
   xmlns:cc="http://creativecommons.org/ns#"
   xmlns:rdf="http://www.w3.org/1999/02/22-rdf-syntax-ns#"
   xmlns:svg="http://www.w3.org/2000/svg"
   xmlns="http://www.w3.org/2000/svg"
   xmlns:sodipodi="http://sodipodi.sourceforge.net/DTD/sodipodi-0.dtd"
   xmlns:inkscape="http://www.inkscape.org/namespaces/inkscape"
   version="1.1"
   id="Layer_1"
   x="0px"
   y="0px"
   viewBox="0 0 330.383 330.383"
   style="enable-background:new 0 0 330.383 330.383;"
   xml:space="preserve"
   inkscape:version="0.91 r13725"
   sodipodi:docname="pencil.svg"><metadata
     id="metadata52"><rdf:RDF><cc:Work
         rdf:about=""><dc:format>image/svg+xml</dc:format><dc:type
           rdf:resource="http://purl.org/dc/dcmitype/StillImage" /></cc:Work></rdf:RDF></metadata><defs
     id="defs50" /><sodipodi:namedview
     pagecolor="#ffffff"
     bordercolor="#666666"
     borderopacity="1"
     objecttolerance="10"
     gridtolerance="10"
     guidetolerance="10"
     inkscape:pageopacity="0"
     inkscape:pageshadow="2"
     inkscape:window-width="1366"
     inkscape:window-height="715"
     id="namedview48"
     showgrid="false"
     inkscape:zoom="1.428645"
     inkscape:cx="39.036378"
     inkscape:cy="161.5077"
     inkscape:window-x="0"
     inkscape:window-y="0"
     inkscape:window-maximized="1"
     inkscape:current-layer="Layer_1" /><g
     id="XMLID_2349_"><g
       id="XMLID_2350_"><g
         id="XMLID_2351_"><path
           id="XMLID_2352_"
           style="fill:#941b11;fill-opacity:1"
           d="M172.422,303.169H45.429C20.379,303.169,0,282.79,0,257.74V150.878     c0-25.05,20.379-45.429,45.429-45.429h126.993c25.05,0,45.429,20.379,45.429,45.429V257.74     C217.851,282.79,197.472,303.169,172.422,303.169z M45.429,125.449C31.407,125.449,20,136.856,20,150.878V257.74     c0,14.021,11.407,25.429,25.429,25.429h126.993c14.021,0,25.429-11.407,25.429-25.429V150.878     c0-14.021-11.407-25.429-25.429-25.429C172.422,125.449,45.429,125.449,45.429,125.449z" /></g><g
         id="XMLID_2355_"><path
           id="XMLID_2356_"
           style="fill:#941b11;fill-opacity:1"
           d="M94.931,254.096c-0.243,0-0.486-0.004-0.731-0.012     c-5.369-0.186-10.456-2.417-14.323-6.283l-0.425-0.452l-37.747-42.747l14.991-13.238l37.454,42.414     c0.305,0.252,0.59,0.313,0.741,0.318l66.212-76.136l15.092,13.125l-66.952,76.984l-0.246,0.246     C105.255,252.06,100.283,254.096,94.931,254.096z" /></g></g><g
       id="XMLID_2357_"><g
         id="XMLID_2358_"><path
           id="XMLID_43_"
           style="fill:#f19c99;fill-opacity:1"
           d="M284.529,37.214h-16.745c-10.554,0-19.109,8.555-19.109,19.109v53.017h35.854     h35.854V56.323c0-10.554-8.555-19.109-19.109-19.109C301.274,37.214,284.529,37.214,284.529,37.214z" /><path
           id="XMLID_2359_"
           style="fill:#941b11;fill-opacity:1"
           d="M330.383,119.34h-91.707V56.322c0-16.051,13.058-29.108,29.108-29.108h33.489     c16.051,0,29.109,13.058,29.109,29.108L330.383,119.34L330.383,119.34z M258.676,99.34h51.707V56.322     c0-5.022-4.087-9.108-9.109-9.108h-33.489c-5.022,0-9.108,4.086-9.108,9.108L258.676,99.34L258.676,99.34z" /></g><g
         id="XMLID_2362_"><path
           id="XMLID_38_"
           style="fill:#f19c99;fill-opacity:1"
           d="M284.529,240.481h-33.113c-2.177,0-3.454,2.451-2.205,4.235l33.113,47.305     c1.071,1.531,3.338,1.531,4.41,0l33.114-47.305c1.249-1.784-0.027-4.235-2.205-4.235H284.529z" /><path
           id="XMLID_2363_"
           style="fill:#941b11;fill-opacity:1"
           d="M284.528,303.169c-4.137,0-8.023-2.023-10.396-5.413l-33.113-47.306     c-2.724-3.889-3.054-8.923-0.86-13.137s6.507-6.832,11.257-6.832h66.228c4.75,0,9.063,2.617,11.257,6.83     s1.864,9.247-0.859,13.139l-33.114,47.306C292.553,301.146,288.666,303.169,284.528,303.169z M265.453,250.481l19.076,27.251     l19.076-27.251L265.453,250.481L265.453,250.481z" /></g><g
         id="XMLID_2366_"><polygon
           id="XMLID_2367_"
           style="fill:#941b11;fill-opacity:1"
           points="330.383,245.511 310.383,245.511 310.383,109.096 258.676,109.096      258.676,245.511 238.676,245.511 238.676,89.096 330.383,89.096    " /></g></g></g><g
     id="g18" /><g
     id="g20" /><g
     id="g22" /><g
     id="g24" /><g
     id="g26" /><g
     id="g28" /><g
     id="g30" /><g
     id="g32" /><g
     id="g34" /><g
     id="g36" /><g
     id="g38" /><g
     id="g40" /><g
     id="g42" /><g
     id="g44" /><g
     id="g46" /></svg>