<?xml version="1.0" encoding="UTF-8" standalone="no"?>
<!-- Generator: Adobe Illustrator 19.0.0, SVG Export Plug-In . SVG Version: 6.00 Build 0)  -->

<svg
   xmlns:dc="http://purl.org/dc/elements/1.1/"
   xmlns:cc="http://creativecommons.org/ns#"
   xmlns:rdf="http://www.w3.org/1999/02/22-rdf-syntax-ns#"
   xmlns:svg="http://www.w3.org/2000/svg"
   xmlns="http://www.w3.org/2000/svg"
   xmlns:sodipodi="http://sodipodi.sourceforge.net/DTD/sodipodi-0.dtd"
   xmlns:inkscape="http://www.inkscape.org/namespaces/inkscape"
   version="1.1"
   id="Layer_1"
   x="0px"
   y="0px"
   viewBox="0 0 360 360"
   style="enable-background:new 0 0 360 360;"
   xml:space="preserve"
   inkscape:version="0.91 r13725"
   sodipodi:docname="car.svg"><metadata
     id="metadata65"><rdf:RDF><cc:Work
         rdf:about=""><dc:format>image/svg+xml</dc:format><dc:type
           rdf:resource="http://purl.org/dc/dcmitype/StillImage" /><dc:title></dc:title></cc:Work></rdf:RDF></metadata><defs
     id="defs63" /><sodipodi:namedview
     pagecolor="#ffffff"
     bordercolor="#666666"
     borderopacity="1"
     objecttolerance="10"
     gridtolerance="10"
     guidetolerance="10"
     inkscape:pageopacity="0"
     inkscape:pageshadow="2"
     inkscape:window-width="1366"
     inkscape:window-height="715"
     id="namedview61"
     showgrid="false"
     inkscape:zoom="0.65555556"
     inkscape:cx="180"
     inkscape:cy="180"
     inkscape:window-x="0"
     inkscape:window-y="0"
     inkscape:window-maximized="1"
     inkscape:current-layer="Layer_1" /><g
     id="g31" /><g
     id="g33" /><g
     id="g35" /><g
     id="g37" /><g
     id="g39" /><g
     id="g41" /><g
     id="g43" /><g
     id="g45" /><g
     id="g47" /><g
     id="g49" /><g
     id="g51" /><g
     id="g53" /><g
     id="g55" /><g
     id="g57" /><g
     id="g59" /><g
     id="g10098"
     transform="matrix(10.165346,0,0,10.165346,-6167.1814,-4817.4701)"><rect
       y="479.01965"
       x="612.04767"
       height="10.072509"
       width="24.214968"
       id="rect8357"
       style="fill:#f4b2b0;fill-opacity:1;stroke:none;stroke-width:1.10000002;stroke-miterlimit:4;stroke-dasharray:none;stroke-opacity:1" /><g
       transform="matrix(0.097219,0,0,0.09033172,608.15771,476.83451)"
       style="stroke:#942218;stroke-width:8.59075451;stroke-miterlimit:4;stroke-dasharray:none;stroke-opacity:1"
       id="g8262"><g
         style="stroke:#942218;stroke-width:8.59075451;stroke-miterlimit:4;stroke-dasharray:none;stroke-opacity:1"
         id="g8264"><path
           style="fill:#941b11;fill-opacity:1;stroke:#942218;stroke-width:8.59075451;stroke-miterlimit:4;stroke-dasharray:none;stroke-opacity:1"
           inkscape:connector-curvature="0"
           d="m 312,123.2 c 0,-0.4 0,-0.8 0,-1.2 L 293.6,39.2 C 289.6,20.8 273.2,7.6 254.4,7.6 L 77.6,7.6 C 58.8,7.6 42.4,20.8 38.4,39.2 L 20,122.4 c -0.4,1.2 -0.4,2 0,3.2 -12,6.8 -20,20 -20,34.8 l 0,80 c 0,12.4 6.8,22.8 16.4,30 0,0.4 -0.4,1.2 -0.4,2 l 0,28 c 0,15.6 12.4,28 28,28 l 8,0 c 15.6,0 28,-12.4 28,-28 l 0,-20 176,0 0,20 c 0,15.6 12.4,28 28,28 l 8,0 c 15.6,0 28,-12.4 28,-28 l 0,-28 c 9.6,-7.2 16,-18.8 16,-32 l 0,-80.4 c 0,-16.4 -10,-30.4 -24,-36.8 z M 54.4,42.8 C 56.8,32 66.4,24 77.6,24 l 176.8,0 c 11.2,0 21.2,8 23.2,18.8 L 294.8,120 40,120 c -0.8,0 -2,0 -2.8,0 L 54.4,42.8 Z M 64,300 c 0,6.8 -5.2,12 -12,12 l -8,0 c -6.8,0 -12,-5.2 -12,-12 l 0,-22 c 4,1.2 8,2 12,2 l 20,0 0,20 z m 240,0 c 0,6.8 -5.2,12 -12,12 l -8,0 c -6.8,0 -12,-5.2 -12,-12 l 0,-20 24,0 c 2.8,0 5.6,-0.4 8,-0.8 l 0,20.8 z m 16,-60 c 0,13.2 -10.8,24 -24,24 L 44,264 C 31.2,264 16,253.2 16,240 l 0,-80 c 0,-13.2 10.8,-24 24,-24 l 256,0 c 13.2,0 24,10.8 24,24 l 0,80 z"
           id="path8266" /><path
           style="fill:#941b11;fill-opacity:1;stroke:#942218;stroke-width:8.59075451;stroke-miterlimit:4;stroke-dasharray:none;stroke-opacity:1"
           inkscape:connector-curvature="0"
           d="m 60,172 c -13.2,0 -24,10.8 -24,24 0,13.2 10.8,24 24,24 13.2,0 24,-10.8 24,-24 0,-13.2 -10.8,-24 -24,-24 z m 0,32 c -4.4,0 -8,-3.6 -8,-8 0,-4.4 3.6,-8 8,-8 4.4,0 8,3.6 8,8 0,4.4 -3.6,8 -8,8 z"
           id="path8268" /><path
           style="fill:#941b11;fill-opacity:1;stroke:#942218;stroke-width:8.59075451;stroke-miterlimit:4;stroke-dasharray:none;stroke-opacity:1"
           inkscape:connector-curvature="0"
           d="m 276,172 c -13.2,0 -24,10.8 -24,24 0,13.2 10.8,24 24,24 13.2,0 24,-10.8 24,-24 0,-13.2 -10.8,-24 -24,-24 z m 0,32 c -4.4,0 -8,-3.6 -8,-8 0,-4.4 3.6,-8 8,-8 4.4,0 8,3.6 8,8 0,4.4 -3.6,8 -8,8 z"
           id="path8270" /></g></g></g></svg>