<?xml version="1.0" encoding="UTF-8" standalone="no"?>
<svg
   xmlns:dc="http://purl.org/dc/elements/1.1/"
   xmlns:cc="http://creativecommons.org/ns#"
   xmlns:rdf="http://www.w3.org/1999/02/22-rdf-syntax-ns#"
   xmlns:svg="http://www.w3.org/2000/svg"
   xmlns="http://www.w3.org/2000/svg"
   version="1.1"
   id="svg5058"
   viewBox="0 0 100 100"
   height="100"
   width="100">
  <defs
     id="defs5060" />
  <metadata
     id="metadata5063">
    <rdf:RDF>
      <cc:Work
         rdf:about="">
        <dc:format>image/svg+xml</dc:format>
        <dc:type
           rdf:resource="http://purl.org/dc/dcmitype/StillImage" />
        <dc:title></dc:title>
      </cc:Work>
    </rdf:RDF>
  </metadata>
  <g
     transform="translate(0,-952.3622)"
     id="layer1">
    <circle
       r="49.979977"
       cy="1002.3622"
       cx="50"
       id="path5608"
       style="fill:#ffffff;fill-opacity:0.49197862;stroke:#ffffff;stroke-width:0.04004303;stroke-miterlimit:4;stroke-dasharray:none;stroke-opacity:1" />
    <g
       style="fill:#ffffff"
       transform="matrix(0.7259281,0,0,-0.7259281,-274.69538,1766.0045)"
       id="g5025">
      <path
         id="path170"
         style="fill:#ffffff;fill-opacity:1;fill-rule:nonzero;stroke:none"
         d="m 398.21716,1050.8121 c -11.068,-0.722 -12.133,-11.886 -12.133,-11.886 10.542,0 12.133,11.886 12.133,11.886 l 0,0 z m -1.257,-1.144 c -0.273,-1.074 -0.793,-2.688 -1.723,-4.299 -1.872,-3.243 -4.547,-5.051 -7.962,-5.386 0.561,2.569 2.619,8.57 9.685,9.685" />
      <path
         id="path176"
         style="fill:#ffffff;fill-opacity:1;fill-rule:nonzero;stroke:none"
         d="m 465.88115,1048.0921 0,-6.653" />
      <path
         id="path182"
         style="fill:#ffffff;fill-opacity:1;fill-rule:nonzero;stroke:none"
         d="m 503.93315,1063.0241 -0.466,0 c -3.372,0 -6.106,-2.734 -6.106,-6.106 0,-3.372 2.734,-6.106 6.106,-6.106 l 1.786,0 -1.32,12.212 0,0 z m -0.895,-1.018 1.101,-10.194 -0.672,0 c -2.815,0 -5.106,2.291 -5.106,5.106 0,2.671 2.061,4.869 4.677,5.088" />
      <g
         id="g5052">
        <path
           id="path166"
           transform="matrix(0.8,0,0,-0.8,0,800)"
           d="m 573.83984,-363.98633 c -13.3552,-0.0913 -26.38962,1.69794 -35.32812,7.30469 -29.355,18.4125 -40.74024,43.16602 -40.74024,43.16602 0,0 -1.17132,0.04 -2.95507,0.46484 -7.1925,1.715 -12.21094,8.24172 -12.21094,15.63672 l 0,8.24804 c 0,8.15 6.44336,7.92188 6.44336,7.92188 l 8.22265,-0.0117 c 0.006,-8.89337 7.21726,-16.10156 16.11329,-16.10156 8.87828,0 16.0763,7.18223 16.10937,16.05273 l 52.86524,-0.0781 c 0.0754,-8.83413 7.25234,-15.97461 16.10546,-15.97461 8.83608,0 16.00092,7.11548 16.10157,15.92773 l 12.21093,-0.0176 c 1.77875,0 3.21875,-1.44515 3.21875,-3.22265 l 0,-3.22656 c -0.96625,-4.5975 -2.91437,-8.83297 -5.60937,-12.48047 l 7.17773,-12.17969 -3.9375,-38.74024 c 0,-2.99375 -2.05054,-5.59218 -4.96679,-6.27343 -9.09774,-2.12563 -29.30117,-6.27678 -48.82032,-6.41016 l 0,-0.006 z m -0.96093,8.05274 c 13.67125,0 27.96703,2.18226 37.55078,4.00976 5.29625,1.0125 9.14062,5.66867 9.14062,11.07617 l 0,4.99219 c 0,5.82875 -4.37383,10.65531 -10.17383,11.22656 l -83.63867,8.22852 c -0.27625,0.0275 -0.5489,0.041 -0.8164,0.041 -3.16,0 -6.03758,-1.87679 -7.33008,-4.77929 -1.315,-2.95 -0.7861,-6.27735 1.3789,-8.6836 6.99,-7.7725 14.99824,-14.51195 23.80079,-20.0332 6.42875,-4.0325 16.55039,-6.07812 30.08789,-6.07812 z m 56.45507,27.77734 0.0215,0 1.51367,14.01563 -1.53516,0 c -3.86375,0 -7.00781,-3.14407 -7.00781,-7.00782 0,-3.865 3.14406,-7.00781 7.00781,-7.00781 z m -132.32421,15.33203 c -0.2625,1.26125 -0.94321,3.87703 -2.43946,6.45703 -2.6,4.4825 -6.38109,6.85711 -11.24609,7.06836 0.4575,-2.73125 2.83555,-12.37039 13.68555,-13.52539 z"
           style="fill:#ffffff;fill-opacity:1;fill-rule:nonzero;stroke:none" />
        <path
           d="m 465.88115,1084.7461 0,-26.654"
           style="fill:#ffffff;fill-opacity:0.27807486;stroke:#ffffff;stroke-width:2;stroke-linecap:round;stroke-linejoin:round;stroke-miterlimit:10;stroke-dasharray:none;stroke-opacity:1"
           id="path174" />
        <path
           id="path184"
           d="m 410.40864,1035.7879 c -5.96154,0 -10.79328,-4.8326 -10.79328,-10.7933 0,-5.9616 4.83174,-10.7946 10.79328,-10.7946 5.96072,0 10.79328,4.833 10.79328,10.7946 0,5.9607 -4.83257,10.7933 -10.79328,10.7933 z m 0,-5.398 c 2.97994,0 5.39664,-2.4154 5.39664,-5.3953 0,-2.9808 -2.41671,-5.398 -5.39664,-5.398 -2.98077,0 -5.39795,2.4172 -5.39795,5.398 0,2.9799 2.41718,5.3953 5.39795,5.3953 z"
           style="fill:#ffffff;fill-opacity:1;fill-rule:nonzero;stroke:none" />
        <path
           id="path184-3"
           d="m 478.80324,1035.7557 c -5.96154,0 -10.79328,-4.8326 -10.79328,-10.7933 0,-5.9616 4.83174,-10.7946 10.79328,-10.7946 5.96072,0 10.79328,4.833 10.79328,10.7946 0,5.9607 -4.83257,10.7933 -10.79328,10.7933 z m 0,-5.398 c 2.97994,0 5.39664,-2.4154 5.39664,-5.3953 0,-2.9808 -2.41671,-5.398 -5.39664,-5.398 -2.98077,0 -5.39795,2.4172 -5.39795,5.398 0,2.9799 2.41718,5.3953 5.39795,5.3953 z"
           style="fill:#ffffff;fill-opacity:1;fill-rule:nonzero;stroke:none" />
      </g>
    </g>
  </g>
</svg>
