<?xml version="1.0" encoding="UTF-8" standalone="no"?>
<svg
   xmlns:dc="http://purl.org/dc/elements/1.1/"
   xmlns:cc="http://creativecommons.org/ns#"
   xmlns:rdf="http://www.w3.org/1999/02/22-rdf-syntax-ns#"
   xmlns:svg="http://www.w3.org/2000/svg"
   xmlns="http://www.w3.org/2000/svg"
   version="1.1"
   id="svg6117"
   viewBox="0 0 885.82677 885.82677"
   height="250mm"
   width="250mm">
  <defs
     id="defs6119" />
  <metadata
     id="metadata6122">
    <rdf:RDF>
      <cc:Work
         rdf:about="">
        <dc:format>image/svg+xml</dc:format>
        <dc:type
           rdf:resource="http://purl.org/dc/dcmitype/StillImage" />
        <dc:title></dc:title>
      </cc:Work>
    </rdf:RDF>
  </metadata>
  <g
     transform="translate(0,-166.53543)"
     id="layer1">
    <g
       transform="matrix(0.74807062,0,0,0.74807062,124.39279,-2.0338616)"
       id="g7325">
      <path
         id="path418"
         style="fill:#100f0d;fill-opacity:1;fill-rule:nonzero;stroke:none"
         d="m 976.68324,918.61416 30.71196,0 c 0,0 10.4869,21.90037 -10.39996,31.7255 -20.887,9.825 -102.2258,7.40075 -102.2258,7.40075 l -139.34972,0.55025 -11.37637,9.07625 -33.54575,0 -510.20175,-24.35363 -18.016,20.47738 -34.31113,3.45012 -156.9727499,-14.963 c 0,0 -16.6011201,17.7885 -34.4765001,11.31013 -17.86287,-6.47413 -19.3025,-69.0605 -19.3025,-69.0605 l 31.62625,-90.61363 90.4025,-13.70125 160.38575,25.80163 250.26288,43.23825 195.66462,-37.53775 125.12325,-49.48913 79.63852,5.12563 65.4119,56.11212 40.9506,85.45088" />
      <path
         id="path420"
         style="fill:#777ca5;fill-opacity:1;fill-rule:nonzero;stroke:none"
         d="m -109.81903,843.84053 c 0,0 25.640128,-47.10212 118.2022501,-53.45225 92.5619999,-6.3625 -118.2022501,53.45225 -118.2022501,53.45225" />
      <path
         id="path422"
         style="fill:#777ca5;fill-opacity:1;fill-rule:nonzero;stroke:none"
         d="m 984.30744,755.89115 c 0,0 12.6878,19.72451 12.6878,33.97176 0,14.26387 -3.9135,25.68987 -4.3851,25.85125 -0.4633,0.14887 -51.2018,-6.57763 -51.2018,-6.57763 l -7.525,-31.00987 50.4241,-22.23551" />
      <path
         id="path424"
         style="fill:#110f0e;fill-opacity:1;fill-rule:nonzero;stroke:none"
         d="m 573.2576,703.42753 c 0,0 -1.56375,-11.6865 -7.41325,-10.13938 -5.837,1.56375 -7.01188,5.46475 -8.17438,17.93738 -1.17487,12.46437 -19.4845,43.25075 -37.41362,49.87387 -17.925,6.62726 -29.22275,7.40088 -48.32263,8.19101 -19.09975,0.7735 -184.37525,-1.55138 -188.22662,4.28575 -3.84725,5.82462 6.62725,16.86175 8.17437,16.81212 1.56375,-0.0625 178.87738,19.42663 178.87738,19.42663 l 74.43437,-14.814 46.37825,-53.77488 -17.925,-34.28625 -0.38887,-3.51225" />
      <path
         id="path426"
         style="fill:#777ca5;fill-opacity:1;fill-rule:nonzero;stroke:none"
         d="m 172.76922,783.90178 -6.25087,-9.51487 2.80075,-3.27225 c 0,0 157.8125,-78.52563 183.10112,-85.96363 0,0 4.7615,8.62525 -1.48937,14.42512 -6.24663,5.79988 -85.66175,63.50063 -93.985,81.95101 -8.33988,18.438 -84.17663,2.37462 -84.17663,2.37462" />
      <path
         id="path428"
         style="fill:#110f0e;fill-opacity:1;fill-rule:nonzero;stroke:none"
         d="m 350.8316,689.39128 c 0,0 -0.97213,-9.00188 3.326,-10.72688 4.28587,-1.7375 11.55012,-5.88675 15.01262,-5.88675 3.46263,0 16.262,15.22363 10.38763,22.83538 -5.88663,7.616 -83.05138,64.36525 -99.64838,90.31575 -16.61362,25.94638 -30.09975,4.4595 -30.09975,4.4595 l 7.94688,-8.62525 c 0,0 8.93975,-20.13825 51.177,-49.33613 42.24962,-29.19787 47.08562,-36.12712 41.898,-43.03562" />
      <path
         id="path430"
         style="fill:#110f0e;fill-opacity:1;fill-rule:nonzero;stroke:none"
         d="m 635.93097,713.95178 c 0,0 3.115,-38.39825 -13.48625,-42.89925 -16.6135,-4.50088 -37.02475,-9.6885 -37.02475,-9.6885 0,0 3.4625,32.524 -4.50087,48.78587" />
      <path
         id="path432"
         style="fill:#110f0e;fill-opacity:1;fill-rule:nonzero;stroke:none"
         d="m 588.25785,710.48915 c 0,1.72513 -1.39825,3.12338 -3.12338,3.12338 -1.725,0 -3.12737,-1.39825 -3.12737,-3.12338 l 0,-46.25 c 0,-1.73737 1.40237,-3.12737 3.12737,-3.12737 1.72513,0 3.12338,1.39 3.12338,3.12737 l 0,46.25" />
      <path
         id="path434"
         style="fill:#110f0e;fill-opacity:1;fill-rule:nonzero;stroke:none"
         d="m -99.129402,957.76528 c 0,0 -36.387748,-2.66412 -52.765498,-11.215 -16.37375,-8.55087 -11.32263,-15.43462 -7.76075,-15.43462 3.56175,0 20.39875,0 20.39875,0 0,0 14.48725,-4.43888 10.9255,-24.3785 -3.56188,-19.93538 32.776248,19.68737 29.201998,51.02812" />
      <path
         id="path436"
         style="fill:#efb317;fill-opacity:1;fill-rule:nonzero;stroke:none"
         d="m -163.64365,884.43953 c 0,0 16.36125,5.05113 22.61212,22.59963 6.23838,17.5485 17.5485,43.7265 35.08875,49.0755 17.548503,5.36137 62.46225,7.15262 62.46225,7.15262 0,0 -11.30187,-151.40462 117.499,-151.40462 128.78838,0 108.26138,151.40462 108.26138,151.40462 0,0 527.06775,3.25988 527.9655,3.55763 0.88937,0.302 -31.83725,-151.09838 107.9635,-158.83425 139.80059,-7.72775 111.83979,139.21325 111.83979,139.21325 l 54.4326,-12.50163 c 0,0 5.3531,-22.90162 11.9017,-31.22487 6.54036,-8.33575 19.03776,-36.58638 19.03776,-53.53913 0,-16.96112 1.1872,-36.58637 -11.9018,-45.8115 0,0 -4.16156,-16.06337 -7.13596,-19.03775 l -1.7871,20.527 c 0,0 -16.0634,2.67238 -24.1014,-4.46362 -8.0255,-7.13613 -24.0847,-17.55263 -24.3866,-20.52713 -0.2979,-2.97437 40.752,-22.01213 43.4245,-25.272 2.6765,-3.27638 2.391,-9.52713 -1.1874,-10.1145 -3.5617,-0.59988 -14.2721,4.749 -30.0376,4.749 -15.7614,0 -77.0364,-2.0725 -101.7251,-9.21275 -24.68464,-7.136 -152.00027,-31.23738 -177.87214,-33.61188 -25.876,-2.3745 -94.29125,-8.62537 -108.86538,-7.438 0,0 -21.71012,68.71301 -66.624,74.36401 -44.91375,5.65087 -185.30187,6.83812 -185.30187,6.83812 l -148.426,-5.94875 -0.17375,-3.86387 c 0,0 -124.75088,-3.57413 -170.8477499,16.94875 0,0 -9.2252501,6.55275 -20.2416301,8.32337 -10.99987,1.79125 -60.071247,24.99063 -81.48775,32.72663 -21.42062,7.74 -51.16037,16.95275 -56.81137,34.50125 -5.66325,17.5485 -3.57425,20.82487 -3.57425,20.82487" />
      <path
         id="path438"
         style="fill:#13110f;fill-opacity:1;fill-rule:nonzero;stroke:none"
         d="m 327.48322,740.68815 6.47413,-2.97437 3.02412,-0.025 c 0,0 4.927,9.58912 3.63625,17.9125 -1.27412,8.31088 -2.83375,16.7625 -2.83375,16.7625 l -6.10187,0 -4.19888,-31.67588" />
      <path
         id="path440"
         style="fill:#efb317;fill-opacity:1;fill-rule:nonzero;stroke:none"
         d="m 282.8591,779.52491 c 0,0 10.85912,-11.43425 12.55937,-15.27325 1.71275,-3.83901 -0.42187,-13.01451 6.40388,-17.06451 6.82162,-4.04587 17.28375,-10.098 32.2095,-9.42375 0,0 7.67387,9.84988 1.06325,34.16213 0,0 -13.65163,3.41288 -18.33875,-0.42612 0,0 -5.5475,9.39075 -4.26088,12.5885 1.27413,3.20187 -29.624,-2.085 -29.63637,-4.563" />
      <path
         id="path442"
         style="fill:#1a1816;fill-opacity:1;fill-rule:nonzero;stroke:none"
         d="m 783.15722,813.75328 c -0.12375,-0.17375 -14.148,-18.48762 -29.90112,-43.81337 -11.66175,-18.74001 -27.36113,-15.76151 -36.74763,-13.99088 -3.43775,0.65362 -5.9115,1.117 -7.38837,0.42612 -3.96313,-1.84925 -13.6475,-16.51025 -20.05963,-26.21112 -2.08912,-3.173 -3.75212,-5.67575 -4.60425,-6.82575 -3.43362,-4.58775 -6.15987,-15.7615 -6.2715,-16.22475 l 1.088,0.025 c 0.02,0.11125 2.75925,11.1365 6.0605,15.5505 0.877,1.16237 2.53588,3.69 4.64975,6.87537 5.94875,9.01013 15.92688,24.10138 19.60038,25.82638 1.15012,0.53775 3.6115,0.075 6.7265,-0.513 9.64725,-1.83675 25.80987,-4.88975 37.87287,14.48725 15.72425,25.27213 30.01288,43.8755 30.137,44.04925 l -1.1625,0.33925" />
      <path
         id="path444"
         style="fill:#1a1816;fill-opacity:1;fill-rule:nonzero;stroke:none"
         d="m 890.69474,823.71478 -0.9225,-0.59987 c 10.5489,-1.663 60.2614,-37.33925 60.7124,-37.67425 l 0.848,0.69912 c -1.8615,1.38588 -49.8118,35.86238 -60.6379,37.575" />
      <path
         id="path446"
         style="fill:#1a1816;fill-opacity:1;fill-rule:nonzero;stroke:none"
         d="m -13.60415,836.80378 c -1.98988,0 -4.4265,-1.21625 -7.43813,-2.689 -2.53587,-1.24925 -5.41512,-2.66412 -8.6005,-3.64862 -7.376,-2.26288 -32.65212,-17.2755 -33.71112,-17.90025 l 1.19962,-0.52538 c 0.26063,0.16138 25.5865,15.14925 32.82175,17.38725 3.28888,1.00113 6.20113,2.43663 8.766,3.69838 3.08613,1.514 5.73375,2.82537 7.48363,2.54 3.4418701,-0.575 13.71362011,0.0625 14.1272501,0.0875 l -1.31137999,1.12525 c -0.0987,-0.0125 -9.32850001,-0.68675 -12.63800011,-0.14075 -0.2275,0.0375 -0.46337,0.0662 -0.69912,0.0662" />
      <path
         id="path450"
         style="fill:#1a1816;fill-opacity:1;fill-rule:nonzero;stroke:none"
         d="m 347.41872,953.05341 c -38.34862,0 -69.67287,-0.36413 -76.20075,-1.452 -17.048,-2.838 -21.98737,-25.0735 -22.459,-27.43563 -0.75287,-1.47687 -5.03862,-11.38875 -15.4015,-62.72712 -11.33912,-56.0625 3.475,-82.14951 4.09963,-83.23751 l 1.89887,1.10038 c -0.16137,0.26475 -14.99612,26.55038 -3.85975,81.71113 11.0495,54.68912 15.07475,61.9245 15.236,62.214 l 0.1,0.16137 0.05,0.20275 c 0.0375,0.23575 4.58775,23.17463 20.68838,25.85938 9.5395,1.58862 84.6275,1.46449 128.54012,1.26587 60.46013,-0.2895 116.9985,-1.00112 119.11238,-1.27825 3.14812,-0.52538 20.48562,-14.62375 34.41037,-48.71137 14.06113,-34.398 45.74938,-109.99888 46.07613,-110.76426 l 0.0875,-0.17374 c 0.0375,-0.0625 4.1865,-6.87538 -0.11125,-19.78651 -4.60025,-13.78812 7.285,-66.73562 7.798,-68.98612 l 2.13875,0.484 c -0.12375,0.53787 -12.26163,54.60225 -7.86425,67.803 4.43887,13.32475 0.48825,20.65113 -0.0625,21.58613 -1.17488,2.813 -32.17225,76.76337 -46.03488,110.66487 -14.49137,35.43625 -32.5405,49.46013 -36.10225,50.04763 -0.81087,0.13649 -99.14787,1.45199 -172.1385,1.45199" />
      <path
         id="path452"
         style="fill:#242227;fill-opacity:1;fill-rule:nonzero;stroke:none"
         d="m 164.0321,917.95216 c 0,50.46137 -40.901,91.37474 -91.36225,91.37474 -50.46138,0 -91.36238,-40.91337 -91.36238,-91.37474 0,-50.44888 40.901,-91.36225 91.36238,-91.36225 50.46125,0 91.36225,40.91337 91.36225,91.36225" />
      <path
         id="path454"
         style="fill:#c2bdba;fill-opacity:1;fill-rule:nonzero;stroke:none"
         d="m 3.8698501,917.95216 c 0,38.12525 30.8981199,69.0275 69.0233699,69.0275 38.11275,0 69.01513,-30.90225 69.01513,-69.0275 0,-38.11275 -30.90238,-69.01088 -69.01513,-69.01088 -38.12525,0 -69.0233699,30.89813 -69.0233699,69.01088" />
      <path
         id="path456"
         style="fill:#242227;fill-opacity:1;fill-rule:nonzero;stroke:none"
         d="m 48.9326,871.68978 15.97237,18.14838 c 0,0 2.76338,4.352 6.54038,4.352 3.77275,0 6.52375,-3.053 6.52375,-3.053 l 16.71287,-19.44738 c 0,0 2.325,-2.76337 0,-4.64975 -2.32487,-1.8865 -10.4745,-4.64987 -21.78875,-4.64987 -11.32262,0 -28.023,3.04887 -23.96062,9.29962" />
      <path
         id="path458"
         style="fill:#242227;fill-opacity:1;fill-rule:nonzero;stroke:none"
         d="m 48.9326,964.22703 15.97237,-18.1525 c 0,0 2.76338,-4.34787 6.54038,-4.34787 3.77275,0 6.52375,3.04887 6.52375,3.04887 l 16.7005,19.4515 c 0,0 2.33737,2.76338 0,4.64975 -2.32488,1.8865 -10.46213,4.64988 -21.78875,4.64988 -11.31025,0 -28.01063,-3.04888 -23.94825,-9.29963" />
      <path
         id="path460"
         style="fill:#242227;fill-opacity:1;fill-rule:nonzero;stroke:none"
         d="m 119.73472,894.87691 -18.16487,15.9765 c 0,0 -4.352,2.76337 -4.352,6.53625 0,3.77687 3.053,6.53612 3.053,6.53612 l 19.46387,16.7005 c 0,0 2.74688,2.32488 4.63338,0 1.8905,-2.32487 4.64975,-10.4745 4.64975,-21.78875 0,-11.32262 -3.04888,-28.023 -9.28313,-23.96062" />
      <path
         id="path462"
         style="fill:#242227;fill-opacity:1;fill-rule:nonzero;stroke:none"
         d="m 27.18097,894.87691 18.1525,15.9765 c 0,0 4.34788,2.76337 4.34788,6.53625 0,3.77687 -3.0365,6.53612 -3.0365,6.53612 l -19.46388,16.7005 c 0,0 -2.76337,2.32488 -4.64975,0 -1.88637,-2.32487 -4.64987,-10.4745 -4.64987,-21.80125 0,-11.31012 3.04887,-28.0105 9.29962,-23.94812" />
      <path
         id="path464"
         style="fill:#242227;fill-opacity:1;fill-rule:nonzero;stroke:none"
         d="m 904.58214,917.95216 c 0,50.46137 -40.9094,91.37474 -91.36242,91.37474 -50.46125,0 -91.37475,-40.91337 -91.37475,-91.37474 0,-50.44888 40.9135,-91.36225 91.37475,-91.36225 50.45302,0 91.36242,40.91337 91.36242,91.36225" />
      <path
         id="path466"
         style="fill:#c2bdba;fill-opacity:1;fill-rule:nonzero;stroke:none"
         d="m 744.40735,917.95216 c 0,38.12525 30.90237,69.0275 69.02337,69.0275 38.12522,0 69.01512,-30.90225 69.01512,-69.0275 0,-38.11275 -30.8899,-69.01088 -69.01512,-69.01088 -38.121,0 -69.02337,30.89813 -69.02337,69.01088" />
      <path
         id="path468"
         style="fill:#242227;fill-opacity:1;fill-rule:nonzero;stroke:none"
         d="m 789.48247,871.68978 15.9765,18.14838 c 0,0 2.751,4.352 6.53625,4.352 3.777,0 6.528,-3.053 6.528,-3.053 l 16.69625,-19.44738 c 0,0 2.32497,-2.76337 0,-4.64975 -2.3125,-1.8865 -10.4745,-4.64987 -21.78875,-4.64987 -11.31012,0 -28.023,3.04887 -23.94825,9.29962" />
      <path
         id="path470"
         style="fill:#242227;fill-opacity:1;fill-rule:nonzero;stroke:none"
         d="m 789.48247,964.22703 15.96413,-18.1525 c 0,0 2.76337,-4.34787 6.53625,-4.34787 3.77687,0 6.54037,3.04887 6.54037,3.04887 l 16.69625,19.4515 c 0,0 2.32497,2.76338 0,4.64975 -2.32487,1.8865 -10.4745,4.64988 -21.78875,4.64988 -11.3225,0 -28.023,-3.04888 -23.94825,-9.29963" />
      <path
         id="path472"
         style="fill:#242227;fill-opacity:1;fill-rule:nonzero;stroke:none"
         d="m 860.27234,894.87691 -18.1525,15.9765 c 0,0 -4.3602,2.76337 -4.3602,6.53625 0,3.77687 3.0487,6.53612 3.0487,6.53612 l 19.464,16.7005 c 0,0 2.7593,2.32488 4.6498,0 1.8863,-2.32487 4.6498,-10.4745 4.6498,-21.78875 0,-11.32262 -3.053,-28.023 -9.2996,-23.96062" />
      <path
         id="path474"
         style="fill:#242227;fill-opacity:1;fill-rule:nonzero;stroke:none"
         d="m 767.7186,894.87691 18.16487,15.9765 c 0,0 4.352,2.76337 4.352,6.53625 0,3.77687 -3.053,6.53612 -3.053,6.53612 l -19.46387,16.7005 c 0,0 -2.74688,2.32488 -4.6375,0 -1.88638,-2.32487 -4.64563,-10.4745 -4.64563,-21.80125 0,-11.31012 3.04888,-28.0105 9.28313,-23.94812" />
    </g>
  </g>
</svg>
