<?xml version="1.0" encoding="UTF-8" standalone="no"?>
<svg
   xmlns:dc="http://purl.org/dc/elements/1.1/"
   xmlns:cc="http://creativecommons.org/ns#"
   xmlns:rdf="http://www.w3.org/1999/02/22-rdf-syntax-ns#"
   xmlns:svg="http://www.w3.org/2000/svg"
   xmlns="http://www.w3.org/2000/svg"
   version="1.1"
   id="svg6117"
   viewBox="0 0 885.82677 885.82677"
   height="250mm"
   width="250mm">
  <defs
     id="defs6119" />
  <metadata
     id="metadata6122">
    <rdf:RDF>
      <cc:Work
         rdf:about="">
        <dc:format>image/svg+xml</dc:format>
        <dc:type
           rdf:resource="http://purl.org/dc/dcmitype/StillImage" />
        <dc:title></dc:title>
      </cc:Work>
    </rdf:RDF>
  </metadata>
  <g
     transform="translate(0,-166.53543)"
     id="layer1">
    <g
       transform="matrix(1.0081315,0,0,1.0081315,-2.8919422,-2.349051)"
       id="g7607">
      <path
         id="path726"
         style="fill:#100f0d;fill-opacity:1;fill-rule:nonzero;stroke:none"
         d="m 115.14671,681.11464 12.33052,8.17822 c 0,0 12.51705,-6.70497 19.36638,-6.44339 6.86133,0.26461 92.81776,2.4174 92.81776,2.4174 l 17.41497,1.27178 27.47246,-35.12448 -1.7439,-58.76951 -69.99066,-25.19351 -62.82561,4.85899 -29.70043,25.59321 -19.13179,39.52051 13.9903,43.69078" />
      <path
         id="path728"
         style="fill:#131110;fill-opacity:1;fill-rule:nonzero;stroke:none"
         d="m 863.06746,635.85435 -0.67048,3.02475 c 0,0 -13.7648,19.25202 -31.67297,22.49336 -17.90496,3.24424 -16.57003,3.91472 -16.57003,3.91472 0,0 -29.20729,6.94249 -39.83908,1.0103 -10.6379,-5.9323 -99.49871,7.27616 -99.49871,7.27616 l -11.98483,4.92514 -12.75754,2.46251 c 0,0 -25.07314,-23.73224 -25.07314,-24.0659 0,-0.33681 -0.88999,-23.39531 -0.88999,-23.39531 l 23.83738,-65.13186 49.80643,-29.3275 24.73936,-3.8066 c 0,0 74.42559,25.29268 74.42559,25.85492 0,0.55619 9.17656,23.50657 9.17656,23.50657 l 21.05011,31.1136 17.3427,8.61432 18.57864,11.53082" />
      <path
         id="path730"
         style="fill:#2e2626;fill-opacity:1;fill-rule:nonzero;stroke:none"
         d="m 872.91757,618.50853 c 0,0 2.68791,15.99883 1.11842,19.57976 0,0 -26.53736,4.19747 -30.00114,3.49688 -3.46074,-0.68861 -10.11161,-10.8843 -10.11161,-10.8843 l 38.99433,-12.19234" />
      <path
         id="path732"
         style="fill:#403636;fill-opacity:1;fill-rule:nonzero;stroke:none"
         d="m 859.3091,572.43942 c 0.27053,-0.57421 0.53508,-1.21783 0.7516,-1.91841 0.78176,-2.54355 -1.77096,-4.88887 -1.77096,-4.88887 l -29.22542,-2.14384 c 0,0 -21.03497,28.35649 -21.4228,29.03603 -0.39095,0.68245 11.69002,15.9357 11.69002,15.9357 l 11.93976,0 10.4123,-36.78432 17.6255,0.76371" />
      <path
         id="path734"
         style="fill:#2e2626;fill-opacity:1;fill-rule:nonzero;stroke:none"
         d="m 864.56776,602.50064 -6.25992,-6.65079 -0.49009,-20.97803 c 0,0 0.76367,-0.9531 1.49135,-2.45949 l -17.6255,-0.74569 -10.4123,36.79339 23.22097,0 10.07549,-5.95939" />
      <path
         id="path736"
         style="fill:#301417;fill-opacity:1;fill-rule:nonzero;stroke:none"
         d="m 871.22765,538.44233 c 0,0 0.78183,6.35014 -3.03373,11.14588 -3.81556,4.79876 -7.45067,13.49132 -7.45067,13.49132 l -26.5915,0.89288 -1.17265,-15.06665 14.76309,-11.83763 23.48553,1.3742" />
      <path
         id="path738"
         style="fill:#5b5c5e;fill-opacity:1;fill-rule:nonzero;stroke:none"
         d="m 213.01267,554.79586 -7.39654,1.62369 -6.39525,-0.80591 c 0,0 67.30261,-34.15335 165.17756,-56.08436 l 1.99047,18.16963 -145.75412,47.42506 -7.62213,-10.32811" />
      <path
         id="path740"
         style="fill:#94864f;fill-opacity:0.94117647;fill-rule:nonzero;stroke:none"
         d="m 32.353374,672.0583 -20.587062,12.30058 c 3.451734,2.17082 12.664403,3.5449 29.745575,3.8245 19.549715,0.31879 85.965343,1.10948 85.965343,1.10948 0,0 0.3338,-0.32774 0.009,-2.11071 -0.0809,-0.46004 -2.36933,-8.53909 -3.95088,-20.14804 l -64.0616,-0.66455 -27.117687,5.68874" />
      <path
         id="path742"
         style="fill:#94864f;fill-opacity:0.94117647;fill-rule:nonzero;stroke:none"
         d="m 882.58407,603.79055 c -2.19789,-8.53014 -6.02239,-5.77896 -6.02239,-5.77896 l -15.95368,-0.54421 -2.74519,-5.23172 -0.27067,7.7033 4.40488,3.30737 -19.82333,1.0975 -15.9627,-8.25646 8.53006,-29.18334 23.94858,0.28263 2.7542,-5.50539 -25.32263,0.27065 4.95209,-14.86238 c 0,0 26.42906,-7.98569 29.18326,-7.15885 2.75121,0.82684 4.67844,-1.92434 3.57804,-2.75118 -1.10651,-0.82685 -226.82165,-39.3581 -301.4096,-44.03665 -74.59994,-4.67843 -168.7406,-9.08621 -215.54028,7.97697 l 1.65369,3.30738 c 0,0 -117.97805,29.28855 -151.38578,50.64826 0,0 -74.04375,-3.30738 -158.553819,46.79074 0,0 -25.875922,7.98592 -44.3192396,31.66095 0,0 12.6192476,22.51429 20.4878516,26.80198 0,0 -16.2543341,20.29534 -14.146661,23.04048 0.264562,0.34274 0.646419,0.67954 1.14556,0.98926 l 20.587062,-12.30058 27.117686,-5.68874 64.06139,0.66455 c -4.46802,-32.82752 -3.31638,-93.94235 69.01944,-91.58796 93.04325,3.03381 63.31576,112.0277 63.31576,112.0277 l 395.27951,-6.05857 -12.11103,-37.98401 c 0,0 -0.39094,-81.75 73.09951,-84.5041 73.49957,-2.75118 80.25874,58.35458 80.25874,58.35458 l 0,34.95927 21.44991,-14.03542 c 0,0 24.90471,4.95199 32.60795,3.02475 7.71536,-1.92435 38.33881,-28.8978 36.13183,-37.4398" />
      <path
         id="path744"
         style="fill:#94864f;fill-opacity:0.94117647;fill-rule:nonzero;stroke:none"
         d="m 9.7488454,633.25349 c 0,0 34.6074356,-16.28739 97.2135446,-21.93101 0,0 -70.38458,13.83684 -70.483791,17.2435 -0.111203,3.41562 22.992461,38.54928 22.992461,38.54928 0,0 -49.187091,-14.05635 -49.7222146,-33.86177" />
      <path
         id="path746"
         style="fill:#94864f;fill-opacity:0.94117647;fill-rule:nonzero;stroke:none"
         d="m 601.95108,526.06664 22.07839,2.92558 c 0,0 -54.91186,-25.39185 -66.06075,-26.6277 -11.146,-1.24469 -153.39435,-12.42987 -202.53629,7.38451 -49.14202,19.82344 103.02854,13.99333 103.02854,13.99333 l 143.49011,2.32428" />
      <path
         id="path748"
         style="fill:#424244;fill-opacity:1;fill-rule:nonzero;stroke:none"
         d="m 531.68687,506.62511 c 0,0 -102.12956,-15.4095 -173.69268,2.48053 -71.57221,17.88701 -131.85114,48.99469 -131.85114,48.99469 2.52269,0.6013 4.97614,1.17272 7.37555,1.71682 13.38294,-5.72187 78.07875,-33.29651 86.20892,-35.0224 9.08628,-1.92422 86.71105,-25.31965 169.84108,-19.27004 0,0 41.00878,1.65357 46.24349,16.24529 1.73491,4.84388 1.25075,9.17655 -0.16535,12.79969 10.90243,-1.63567 17.50818,-2.61586 17.50818,-2.61586 l -21.46805,-25.32872" />
      <path
         id="path750"
         style="fill:#5b5c5e;fill-opacity:1;fill-rule:nonzero;stroke:none"
         d="m 535.81209,521.77 c -2.63689,-7.36044 -14.37514,-11.42862 -25.36779,-13.65664 l 2.05363,29.91101 c 8.89386,-1.32897 16.76246,-2.49855 23.14881,-3.45468 1.41611,-3.62314 1.90026,-7.95581 0.16535,-12.79969" />
      <path
         id="path752"
         style="fill:#5b5c5e;fill-opacity:1;fill-rule:nonzero;stroke:none"
         d="m 489.5686,505.52471 c -83.13003,-6.04961 -160.7548,17.34582 -169.84108,19.27004 -8.13017,1.72589 -72.82598,29.30053 -86.20892,35.0224 65.5677,14.79309 88.00696,7.29731 99.42951,5.30682 7.41163,-1.29886 91.9217,-13.98124 154.04974,-23.28405 l 4.43195,-36.20407 c -1.18172,-0.0849 -1.8612,-0.11161 -1.8612,-0.11161" />
      <path
         id="path754"
         style="fill:#424244;fill-opacity:1;fill-rule:nonzero;stroke:none"
         d="m 491.4298,505.63585 -4.43195,36.20407 c 9.0833,-1.35304 17.68562,-2.64597 25.50008,-3.81555 l -2.05363,-29.91101 c -8.00388,-1.61451 -15.61692,-2.26103 -19.0145,-2.47751" />
      <path
         id="path756"
         style="fill:#424244;fill-opacity:1;fill-rule:nonzero;stroke:none"
         d="m 613.43376,526.44855 -56.15362,-23.12175 -14.03844,1.19958 -8.25645,5.40611 17.39689,22.12958 c 0,0 35.1788,-7.82049 61.05162,-5.61352" />
      <path
         id="path758"
         style="fill:#12100f;fill-opacity:1;fill-rule:nonzero;stroke:none"
         d="m 543.51534,505.63585 21.47705,17.43302 -8.81274,7.06886 -17.89003,-20.47892 5.22572,-4.02296" />
      <path
         id="path760"
         style="fill:#201614;fill-opacity:1;fill-rule:nonzero;stroke:none"
         d="m 98.5495,581.61585 c 0,0 -31.627762,7.45671 -44.183872,15.76131 -12.562106,8.30459 -19.059659,16.81672 -19.059659,16.81672 0,0 8.731604,-0.20753 11.176067,-2.12583 2.450461,-1.91818 30.879054,-22.24979 52.067464,-30.4522" />
      <path
         id="path762"
         style="fill:#201614;fill-opacity:1;fill-rule:nonzero;stroke:none"
         d="m 37.22131,633.25349 -13.626528,6.49756 c 0,0 5.32493,2.86837 6.278055,5.43308 0.962124,2.55273 3.626085,7.02085 3.090968,9.79296 -0.538208,2.77223 -3.409677,18.2058 -3.409677,18.2058 l 16.828698,2.23696 13.088234,-9.05029 c 0,0 -17.77874,-36.20395 -22.24975,-33.11607" />
      <path
         id="path770"
         style="fill:#181618;fill-opacity:1;fill-rule:nonzero;stroke:none"
         d="m 568.10734,558.35587 7.77838,9.12237 c 0,0 -26.02918,61.93261 -49.95979,71.50909 0,0 21.39593,-2.61585 27.22899,-7.06886 5.83306,-4.44998 45.26328,-64.77692 45.26328,-65.78722 0,-1.00728 -20.58706,-7.33033 -30.31086,-7.77538" />
      <path
         id="path772"
         style="fill:#171311;fill-opacity:1;fill-rule:nonzero;stroke:none"
         d="m 279.47945,661.28224 c -1.8702,0 -2.68805,-0.0186 -2.73311,-0.0279 l -0.91706,-0.036 0.12628,-0.89916 C 277.69947,648.154 263.51675,588.99072 263.37238,588.3893 l -0.12628,-0.55328 29.44495,-19.9497 0.92605,1.37105 -28.50082,19.30632 c 1.50033,6.29608 13.59345,57.49169 12.5742,71.06405 6.41333,0.0721 50.01393,-0.0267 206.5622,-12.84782 l 31.06256,-87.38759 0.10824,-0.12021 c 2.92552,-3.3254 5.30685,-6.81321 5.25278,-7.70318 -0.9742,-1.1547 -9.73278,-8.07615 -15.10886,-12.25559 l 1.00728,-1.29886 c 1.47035,1.13656 14.36316,11.146 15.46365,12.61925 1.20868,1.5966 -2.17091,6.0767 -5.27079,9.61252 l -31.32413,88.09713 -0.52921,0.0453 c -146.46079,11.99389 -194.38503,12.89293 -205.43472,12.89293" />
      <path
         id="path774"
         style="fill:#171311;fill-opacity:1;fill-rule:nonzero;stroke:none"
         d="m 284.54881,667.32266 22.15961,15.52681 160.872,-2.09861 -158.7824,-0.87207 -24.24921,-12.55613" />
      <path
         id="path776"
         style="fill:#242227;fill-opacity:1;fill-rule:nonzero;stroke:none"
         d="m 257.07634,646.05608 c 0,35.60265 -28.86458,64.46732 -64.47031,64.46732 -35.59363,0 -64.45822,-28.86467 -64.45822,-64.46732 0,-35.5966 28.86459,-64.46127 64.45822,-64.46127 35.60573,0 64.47031,28.86467 64.47031,64.46127" />
      <path
         id="path778"
         style="fill:#c2bdba;fill-opacity:1;fill-rule:nonzero;stroke:none"
         d="m 144.06544,646.05608 c 0,26.90126 21.80476,48.70601 48.70594,48.70601 26.8922,0 48.68796,-21.80475 48.68796,-48.70601 0,-26.89219 -21.79576,-48.68787 -48.68796,-48.68787 -26.90118,0 -48.70594,21.79568 -48.70594,48.68787" />
      <path
         id="path780"
         style="fill:#242227;fill-opacity:1;fill-rule:nonzero;stroke:none"
         d="m 175.86455,613.41202 11.27529,12.80876 c 0,0 1.94232,3.07276 4.60629,3.07276 2.66995,0 4.61227,-2.15279 4.61227,-2.15279 l 11.78642,-13.72873 c 0,0 1.63261,-1.95433 0,-3.28028 -1.64469,-1.3349 -7.39654,-3.28029 -15.37344,-3.28029 -7.99488,0 -19.76921,2.15582 -16.90683,6.56057" />
      <path
         id="path782"
         style="fill:#242227;fill-opacity:1;fill-rule:nonzero;stroke:none"
         d="m 175.86455,678.70618 11.2662,-12.80875 c 0,0 1.95141,-3.06974 4.61538,-3.06974 2.66095,0 4.61227,2.15279 4.61227,2.15279 l 11.78642,13.7257 c 0,0 1.63261,1.94527 0,3.28041 -1.64469,1.33792 -7.39654,3.28028 -15.38243,3.28028 -7.98589,0 -19.76022,-2.15279 -16.89784,-6.56069" />
      <path
         id="path784"
         style="fill:#242227;fill-opacity:1;fill-rule:nonzero;stroke:none"
         d="m 225.81535,629.77463 -12.80269,11.2754 c 0,0 -3.07888,1.94526 -3.07888,4.60623 0,2.66992 2.15283,4.61531 2.15283,4.61531 l 13.72874,11.78334 c 0,0 1.94233,1.63578 3.2803,0 1.33507,-1.64462 3.27739,-7.39649 3.27739,-15.37346 0,-7.99488 -2.15283,-19.76915 -6.55769,-16.90682" />
      <path
         id="path786"
         style="fill:#242227;fill-opacity:1;fill-rule:nonzero;stroke:none"
         d="m 160.5182,629.77463 12.81168,11.2754 c 0,0 3.06989,1.94526 3.06989,4.60623 0,2.66992 -2.15283,4.61531 -2.15283,4.61531 l -13.72874,11.78334 c 0,0 -1.94233,1.63578 -3.2803,0 -1.33498,-1.64462 -3.2804,-7.39649 -3.2804,-15.38242 0,-7.98592 2.15283,-19.76914 6.5607,-16.89786" />
      <path
         id="path788"
         style="fill:#242227;fill-opacity:1;fill-rule:nonzero;stroke:none"
         d="m 783.31092,634.29076 c 0,36.17698 -29.32754,65.50459 -65.50458,65.50459 -36.16789,0 -65.49555,-29.32761 -65.49555,-65.50459 0,-36.17698 29.32766,-65.50459 65.49555,-65.50459 36.17704,0 65.50458,29.32761 65.50458,65.50459" />
      <path
         id="path790"
         style="fill:#c2bdba;fill-opacity:1;fill-rule:nonzero;stroke:none"
         d="m 668.48097,634.29076 c 0,27.32817 22.15967,49.4788 49.48774,49.4788 27.32821,0 49.47872,-22.15063 49.47872,-49.4788 0,-27.32805 -22.15051,-49.47868 -49.47872,-49.47868 -27.32807,0 -49.48774,22.15063 -49.48774,49.47868" />
      <path
         id="path792"
         style="fill:#242227;fill-opacity:1;fill-rule:nonzero;stroke:none"
         d="m 700.79731,601.11156 11.44663,13.01907 c 0,0 1.98137,3.12415 4.6905,3.12415 2.70602,0 4.68746,-2.18895 4.68746,-2.18895 l 11.96383,-13.95427 c 0,0 1.67167,-1.97247 0,-3.32551 -1.66274,-1.35304 -7.50482,-3.33435 -15.61702,-3.33435 -8.11214,0 -20.08789,2.18883 -17.1714,6.65986" />
      <path
         id="path794"
         style="fill:#242227;fill-opacity:1;fill-rule:nonzero;stroke:none"
         d="m 700.79731,667.46113 11.44663,-13.01023 c 0,0 1.98137,-3.12694 4.6905,-3.12694 2.70602,0 4.68746,2.18883 4.68746,2.18883 l 11.96383,13.94834 c 0,0 1.67167,1.97829 0,3.33435 -1.66274,1.35304 -7.50482,3.33446 -15.61702,3.33446 -8.12115,0 -20.08789,-2.19185 -17.1714,-6.66881" />
      <path
         id="path796"
         style="fill:#242227;fill-opacity:1;fill-rule:nonzero;stroke:none"
         d="m 751.54789,617.74482 -13.01007,11.44955 c 0,0 -3.12408,1.97841 -3.12408,4.68751 0,2.70607 2.17994,4.6875 2.17994,4.6875 l 13.95421,11.97575 c 0,0 1.98145,1.65985 3.32548,0 1.35297,-1.67473 3.33442,-7.51682 3.33442,-15.629 0,-8.11207 -2.18888,-20.08782 -6.6599,-17.17131" />
      <path
         id="path798"
         style="fill:#242227;fill-opacity:1;fill-rule:nonzero;stroke:none"
         d="m 685.19839,617.74482 13.01916,11.44955 c 0,0 3.11499,1.97841 3.11499,4.68751 0,2.70607 -2.17994,4.67843 -2.17994,4.67843 l -13.95421,11.97284 c 0,0 -1.98137,1.67183 -3.33442,0 -1.35311,-1.66275 -3.32546,-7.50484 -3.32546,-15.61702 0,-8.11207 2.18291,-20.08782 6.65988,-17.17131" />
      <path
         id="path800"
         style="fill:#13120f;fill-opacity:1;fill-rule:nonzero;stroke:none"
         d="m 646.58602,598.67614 -10.91141,3.90576 -21.6395,35.15157 14.37215,33.25151 16.6152,1.38001 -12.80869,-4.66948 -9.70261,-28.70818 14.89827,-34.67059 9.17659,-5.6406" />
    </g>
  </g>
</svg>
