<?xml version="1.0" encoding="UTF-8" standalone="no"?>
<svg
   xmlns:dc="http://purl.org/dc/elements/1.1/"
   xmlns:cc="http://creativecommons.org/ns#"
   xmlns:rdf="http://www.w3.org/1999/02/22-rdf-syntax-ns#"
   xmlns:svg="http://www.w3.org/2000/svg"
   xmlns="http://www.w3.org/2000/svg"
   version="1.1"
   id="svg6117"
   viewBox="0 0 885.82677 885.82677"
   height="250mm"
   width="250mm">
  <defs
     id="defs6119" />
  <metadata
     id="metadata6122">
    <rdf:RDF>
      <cc:Work
         rdf:about="">
        <dc:format>image/svg+xml</dc:format>
        <dc:type
           rdf:resource="http://purl.org/dc/dcmitype/StillImage" />
        <dc:title></dc:title>
      </cc:Work>
    </rdf:RDF>
  </metadata>
  <g
     transform="translate(0,-166.53543)"
     id="layer1">
    <g
       transform="matrix(1.0403577,0,0,1.0403577,-13.422192,-69.07866)"
       id="g7024">
      <path
         id="path82"
         style="fill:#12100f;fill-opacity:1;fill-rule:nonzero;stroke:none"
         d="m 36.46875,730.25069 27.464542,17.57579 c 0,0 5.614318,-14.31809 26.697463,-10.06208 21.085755,4.25601 107.136425,10.929 107.136425,10.929 0,0 30.99806,8.69601 45.33464,-1.36607 14.33126,-10.08838 332.04668,-9.61552 332.04668,-9.61552 l 45.70242,11.50705 c 0,0 14.96442,-5.20173 25.53886,-5.59589 10.57969,-0.42036 101.35661,-2.39068 101.35661,-2.39068 l 15.9785,-2.78475 37.77102,-33.36525 L 725.64654,601.78154 168.9759,621.98455 55.781167,653.98364 36.46875,730.25069" />
      <path
         id="path84"
         style="fill:#e2e7ea;fill-opacity:1;fill-rule:nonzero;stroke:none"
         d="m 826.60388,715.11817 32.50875,0 c 0,0 4.30328,-0.23648 3.58083,7.98657 -0.73032,8.19685 -7.47958,7.09335 -7.47958,7.09335 l -31.43421,0 2.82421,-15.07992" />
      <path
         id="path86"
         style="fill:#c8dae5;fill-opacity:1;fill-rule:nonzero;stroke:none"
         d="m 100.59297,616.49376 -15.145642,-1.94411 c 0,0 -25.323408,3.96704 -39.581166,16.20971 -14.247189,12.24269 -20.234533,36.17626 -19.375441,39.61785 0.856462,3.41539 47.034395,-14.81725 48.169341,-16.39357 1.142887,-1.57631 25.932908,-37.48988 25.932908,-37.48988" />
      <path
         id="path88"
         style="fill:#545862;fill-opacity:1;fill-rule:nonzero;stroke:none"
         d="m 236.03733,593.21693 c 0,0 6.14492,-3.44159 10.57435,-4.9128 4.42158,-1.47122 19.9193,-3.67808 18.93407,-2.46954 -0.98515,1.23473 -7.13015,3.94076 -5.90589,7.38234 1.22957,3.4416 -23.60253,0 -23.60253,0" />
      <path
         id="path90"
         style="fill:#c8dae5;fill-opacity:1;fill-rule:nonzero;stroke:none"
         d="m 253.00364,593.45342 c 0,0 101.61936,-56.98354 136.04591,-69.01609 l 13.22521,0.65682 -76.47718,42.06118 -47.95659,31.71006 -24.83735,-5.41197" />
      <path
         id="path92"
         style="fill:#ad1d2e;fill-opacity:1;fill-rule:nonzero;stroke:none"
         d="m 820.5955,589.69651 c 0,0 12.2584,-3.70427 14.24985,4.57131 1.99138,8.24937 1.99138,16.23597 5.41466,24.80058 3.42053,8.53833 5.69833,13.66135 2.84783,19.65131 -2.84783,5.98995 -50.16077,-5.701 -50.16077,-5.701 0,0 -0.28636,-42.7442 27.64843,-43.3222" />
      <path
         id="path94"
         style="fill:#989a96;fill-opacity:1;fill-rule:nonzero;stroke:none"
         d="m 227.96394,752.39777 c 26.7447,-2.39068 333.70715,-3.07382 385.48884,-3.17891 l -0.2942,-14.39689 -385.25767,6.67309 c 0.0158,4.22972 0.0318,7.82889 0.0626,10.90271" />
      <path
         id="path96"
         style="fill:#f0f0f0;fill-opacity:1;fill-rule:nonzero;stroke:none"
         d="m 848.3333,652.64381 c 0,-2.78486 -3.99331,-19.15222 -3.99331,-19.15222 0,0 -5.18342,-0.21013 -20.14784,-0.60418 -14.96442,-0.39414 -17.9568,-14.16052 -21.35378,-20.72846 -3.39164,-6.59423 23.94937,-16.73515 27.13887,-21.54293 3.19197,-4.78143 -46.49326,-9.32645 -57.06773,-10.53499 -10.58227,-1.18218 -40.90518,-19.25724 -80.81995,-38.80345 C 652.18271,521.70511 601.70403,508.937 505.52299,508.937 c -96.18112,0 -122.63153,17.26058 -122.63153,17.26058 l 11.48599,0 c -76.02532,34.91524 -119.14,64.9176 -119.14,64.9176 -7.97875,2.39079 -32.72942,-0.52544 -32.72942,-0.52544 -115.54338,11.7698 -157.060702,23.95991 -157.060702,23.95991 0,0 10.542837,4.80771 8.351777,7.98662 -2.198918,3.20519 -34.190148,26.40318 -44.160237,35.178 -9.978029,8.77474 -23.673589,8.24929 -23.673589,8.24929 -10.437736,4.78151 -12.318805,13.21474 -11.914272,18.81064 0.396764,5.56962 4.587101,32.31429 4.786743,35.91356 0.197032,3.57298 -5.390927,3.17891 -3.588682,9.77311 1.794306,6.5942 17.560016,14.37069 17.560016,14.37069 l 25.901405,2.49577 c -1.563136,-7.6977 -5.992572,-33.31266 0.485985,-49.52233 7.700288,-19.23097 27.401519,-58.24462 82.112536,-58.24462 44.23391,0 86.56824,28.92528 86.56824,89.84969 0,4.51868 0.008,8.51202 0.0239,12.08499 l 385.25768,-6.67299 -0.1918,-9.74691 c 0,0 11.79608,-86.80206 87.64007,-83.01889 65.11733,3.23139 76.80308,61.29208 69.07913,95.86582 14.25768,-1.23479 49.58277,-4.22982 54.50613,-4.07213 6.18441,0.21008 8.78007,-4.99164 8.78007,-4.99164 34.51587,-9.98339 22.54383,-21.35905 22.54383,-21.35905 7.58208,-15.1588 6.98568,-25.14207 7.98661,-39.30256 0.99306,-14.16051 -15.1693,-15.5529 -15.1693,-15.5529" />
      <path
         id="path98"
         style="fill:#989a96;fill-opacity:1;fill-rule:nonzero;stroke:none"
         d="m 700.6069,642.05627 c -75.84404,-3.78318 -87.64011,83.01889 -87.64011,83.01889 l 0.48599,24.1437 c 4.78674,0 7.39814,0 7.39814,0 -1.19011,-16.15713 -0.59632,-96.83781 80.41537,-97.73104 72.83333,-0.81446 62.4586,86.95972 62.4586,86.95972 0,0 2.29623,-0.21028 5.96107,-0.52545 7.72396,-34.57374 -3.96175,-92.63443 -69.07906,-95.86582" />
      <path
         id="path100"
         style="fill:#989a96;fill-opacity:1;fill-rule:nonzero;stroke:none"
         d="m 141.30901,639.56038 c -54.711017,0 -74.412248,39.01365 -82.112536,58.24461 -6.478557,16.20968 -2.049121,41.82464 -0.485985,49.52234 l 5.222803,0.49915 c -7.983991,-44.2942 10.574435,-106.95246 85.005108,-100.77857 74.43066,6.20009 75.8283,89.40291 75.8283,96.18099 0,6.77819 1.59465,9.37915 1.59465,9.37915 0.29427,-0.0782 0.84336,-0.13139 1.60259,-0.21018 -0.0555,-5.67479 -0.0867,-13.1622 -0.0867,-22.9878 0,-60.92441 -42.33433,-89.84969 -86.56824,-89.84969" />
      <path
         id="path102"
         style="fill:#c8dae5;fill-opacity:1;fill-rule:nonzero;stroke:none"
         d="m 288.56776,601.78154 c 0,0 99.22864,-68.51684 113.707,-71.01266 0,0 65.42208,-18.2852 118.75913,-13.21473 53.32911,5.07046 151.90094,13.16218 154.72515,44.11038 2.82688,30.92186 -1.7707,25.27349 -1.7707,25.27349 l -385.42058,14.84352" />
      <path
         id="path104"
         style="fill:#2e3744;fill-opacity:1;fill-rule:nonzero;stroke:none"
         d="m 494.17091,520.62796 -14.83828,74.71701 31.80198,-1.52377 5.29376,-73.19324 -22.25746,0" />
      <path
         id="path106"
         style="fill:#242227;fill-opacity:1;fill-rule:nonzero;stroke:none"
         d="m 203.98306,721.42329 c 0,34.67884 -28.1266,62.81597 -62.81591,62.81597 -34.69979,0 -62.823774,-28.13703 -62.823774,-62.81597 0,-34.705 28.123984,-62.8158 62.823774,-62.8158 34.68931,0 62.81591,28.1108 62.81591,62.8158" />
      <path
         id="path108"
         style="fill:#c2bdba;fill-opacity:1;fill-rule:nonzero;stroke:none"
         d="m 93.862139,721.42329 c 0,26.19311 21.243411,47.44697 47.457431,47.44697 26.20345,0 47.44687,-21.25386 47.44687,-47.44697 0,-26.21921 -21.24342,-47.44684 -47.44687,-47.44684 -26.21402,0 -47.457431,21.22763 -47.457431,47.44684" />
      <path
         id="path110"
         style="fill:#242227;fill-opacity:1;fill-rule:nonzero;stroke:none"
         d="m 124.8471,689.60817 10.98691,12.47917 c 0,0 1.8863,2.99495 4.49247,2.99495 2.59568,0 4.48461,-2.10173 4.48461,-2.10173 l 11.486,-13.37239 c 0,0 1.59735,-1.89155 0,-3.20511 -1.59466,-1.28736 -7.20111,-3.17891 -14.97752,-3.17891 -7.78959,0 -19.26772,2.10176 -16.47247,6.38402" />
      <path
         id="path112"
         style="fill:#242227;fill-opacity:1;fill-rule:nonzero;stroke:none"
         d="m 124.8471,753.23849 10.97905,-12.47906 c 0,0 1.89416,-2.99503 4.49247,-2.99503 2.5956,0 4.49247,2.10181 4.49247,2.10181 l 11.47814,13.37228 c 0,0 1.60521,1.89163 0,3.17891 -1.59474,1.31358 -7.19849,3.20521 -14.98022,3.20521 -7.77903,0 -19.25716,-2.10181 -16.46191,-6.38412" />
      <path
         id="path114"
         style="fill:#242227;fill-opacity:1;fill-rule:nonzero;stroke:none"
         d="m 173.51569,705.55525 -12.47917,10.98159 c 0,0 -2.99236,1.89153 -2.99236,4.49239 0,2.60096 2.09652,4.49249 2.09652,4.49249 l 13.37501,11.48085 c 0,0 1.89678,1.60246 3.19986,0 1.29261,-1.60255 3.18939,-7.19844 3.18939,-14.97493 0,-7.77649 -2.09382,-19.25729 -6.38925,-16.47239" />
      <path
         id="path116"
         style="fill:#242227;fill-opacity:1;fill-rule:nonzero;stroke:none"
         d="m 109.89062,705.55525 12.47908,10.98159 c 0,0 2.99235,1.89153 2.99235,4.49239 0,2.60096 -2.09652,4.49249 -2.09652,4.49249 l -13.37491,11.48085 c 0,0 -1.89688,1.60246 -3.19995,0 -1.29515,-1.60255 -3.19201,-7.19844 -3.19201,-14.97493 0,-7.77649 2.09652,-19.25729 6.39196,-16.47239" />
      <path
         id="path118"
         style="fill:#242227;fill-opacity:1;fill-rule:nonzero;stroke:none"
         d="m 756.51071,721.42329 c 0,34.67884 -28.12658,62.81597 -62.81856,62.81597 -34.68931,0 -62.81588,-28.13703 -62.81588,-62.81597 0,-34.705 28.12657,-62.8158 62.81588,-62.8158 34.69198,0 62.81856,28.1108 62.81856,62.8158" />
      <path
         id="path120"
         style="fill:#c2bdba;fill-opacity:1;fill-rule:nonzero;stroke:none"
         d="m 646.38978,721.42329 c 0,26.19311 21.24865,47.44697 47.45473,47.44697 26.20353,0 47.44686,-21.25386 47.44686,-47.44697 0,-26.21921 -21.24333,-47.44684 -47.44686,-47.44684 -26.20608,0 -47.45473,21.22763 -47.45473,47.44684" />
      <path
         id="path122"
         style="fill:#242227;fill-opacity:1;fill-rule:nonzero;stroke:none"
         d="m 677.37999,689.60817 10.97899,12.47917 c 0,0 1.89681,2.99495 4.49247,2.99495 2.59565,0 4.49253,-2.10173 4.49253,-2.10173 l 11.47815,-13.37239 c 0,0 1.6052,-1.89155 0,-3.20511 -1.59478,-1.28736 -7.19849,-3.17891 -14.97762,-3.17891 -7.77902,0 -19.26772,2.10176 -16.46452,6.38402" />
      <path
         id="path124"
         style="fill:#242227;fill-opacity:1;fill-rule:nonzero;stroke:none"
         d="m 677.37211,753.23849 10.98687,-12.47906 c 0,0 1.89681,-2.99503 4.49247,-2.99503 2.59565,0 4.49253,2.10181 4.49253,2.10181 l 11.47815,13.37228 c 0,0 1.6052,1.89163 0,3.17891 -1.59478,1.31358 -7.19849,3.20521 -14.97762,3.20521 -7.78956,0 -19.26772,-2.10181 -16.4724,-6.38412" />
      <path
         id="path126"
         style="fill:#242227;fill-opacity:1;fill-rule:nonzero;stroke:none"
         d="m 726.04847,705.55525 -12.47908,10.98159 c 0,0 -3.00018,1.89153 -3.00018,4.49239 0,2.60096 2.09642,4.49249 2.09642,4.49249 l 13.38284,11.48085 c 0,0 1.89949,1.60246 3.19211,0 1.2925,-1.60255 3.19985,-7.19844 3.19985,-14.97493 0,-7.77649 -2.10436,-19.25729 -6.39196,-16.47239" />
      <path
         id="path128"
         style="fill:#242227;fill-opacity:1;fill-rule:nonzero;stroke:none"
         d="m 662.41557,705.55525 12.48702,10.98159 c 0,0 2.99237,1.89153 2.99237,4.49239 0,2.60096 -2.09655,4.49249 -2.09655,4.49249 l -13.38284,11.48085 c 0,0 -1.89683,1.60246 -3.18938,0 -1.30309,-1.60255 -3.19992,-7.19844 -3.19992,-14.97493 0,-7.77649 2.09382,-19.25729 6.3893,-16.47239" />
      <path
         id="path130"
         style="fill:#f4f7f9;fill-opacity:1;fill-rule:nonzero;stroke:none"
         d="m 670.21832,585.493 -174.65232,6.51548 -202.45845,9.22134 c 19.55143,-13.63507 92.83144,-62.26411 114.65277,-70.40839 25.44161,-9.48419 103.13526,-10.06209 111.52641,-9.64176 8.38338,0.42033 96.97456,2.94243 136.73954,23.46068 0,0 25.7595,6.6205 14.19205,40.85265 z m -29.76857,-51.75542 c 0,0 -51.64776,-19.07331 -134.72188,-16.84025 0,0 -69.82515,-0.47289 -102.90401,11.00787 0,0 -51.13019,19.23097 -123.09394,76.68746 l 11.30477,0 3.82778,-0.39413 386.85242,-15.31641 c -0.16816,-3.59925 0.52272,-10.29858 -0.54127,-18.18009 -2.18317,-16.20971 -7.84213,-28.899 -40.72387,-36.96445" />
      <path
         id="path132"
         style="fill:#1d1b1a;fill-opacity:1;fill-rule:nonzero;stroke:none"
         d="m 514.14276,517.52787 c -38.24648,0 -78.58163,3.04753 -100.37144,7.59256 -23.83902,4.96536 -68.45382,31.18461 -125.6108,73.77123 l -0.72771,0.55171 c -13.98181,10.42989 -16.95052,15.50035 -21.14878,36.33391 -4.14304,20.51824 1.45278,85.8037 2.08594,93.05474 l 344.59682,-3.75686 c 5.50128,-65.15411 59.47408,-80.78583 64.4132,-82.07311 4.1273,-10.29858 4.62647,-62.76336 2.20686,-77.68579 -2.5484,-15.71048 -9.57353,-24.09123 -66.14193,-38.43566 -30.50684,-7.72386 -70.84452,-9.35273 -99.30216,-9.35273 z m -247.05744,212.72282 -0.0627,-0.63054 c -0.0635,-0.73553 -6.53382,-72.30002 -2.12803,-94.13183 4.29544,-21.2539 7.33511,-26.48201 21.69527,-37.17464 l 0.72246,-0.55172 c 58.15782,-43.34848 101.78747,-68.93718 126.17296,-74.03392 21.87126,-4.54502 62.32461,-7.61883 100.65779,-7.61883 28.53907,0 69.00028,1.62887 99.65159,9.40527 57.37758,14.55457 64.53931,23.22428 67.18227,39.56537 2.52991,15.63172 1.99925,68.8847 -2.43803,78.81542 l -0.14187,0.31524 -0.34948,0.0786 c -0.58058,0.13138 -58.38113,14.10796 -63.73007,81.5477 l -0.0476,0.63044 -347.18455,3.78326" />
      <path
         id="path134"
         style="fill:#bc3c21;fill-opacity:1;fill-rule:nonzero;stroke:none"
         d="m 90.630755,661.65502 -35.58778,0.18386 c 0,0 -1.460737,6.88326 7.043456,7.4087 8.485785,0.52544 19.795782,0.73556 19.795782,0.73556 0,0 5.170329,-5.72719 8.748542,-8.32812" />
      <path
         id="path138"
         style="fill:#1d1b1a;fill-opacity:1;fill-rule:nonzero;stroke:none"
         d="m 488.8115,727.22947 c -5.81921,-42.27134 6.16857,-136.24559 6.2947,-137.19145 l 9.22405,-73.29826 1.39762,0.15757 -9.22404,73.29835 c -0.11819,0.94577 -12.0824,94.73618 -6.28677,136.8235 l -1.40556,0.21029" />
      <path
         id="path140"
         style="fill:#989a96;fill-opacity:1;fill-rule:nonzero;stroke:none"
         d="m 432.44271,620.40824 c 0,0 -0.36516,-5.46452 9.11108,-7.88151 9.47093,-2.39071 12.16909,-2.6272 15.30592,-2.6272 3.13685,0 22.8854,1.31364 23.03773,8.61716 0.14187,7.27732 -14.65442,9.69431 -20.41052,10.11464 -5.76404,0.44662 -27.40937,1.10344 -27.04421,-8.22309" />
      <path
         id="path142"
         style="fill:#989a96;fill-opacity:1;fill-rule:nonzero;stroke:none"
         d="m 618.97779,616.15226 c 0,0 -0.36516,-5.46453 9.10576,-7.85533 9.47624,-2.41698 12.17704,-2.62711 15.31125,-2.62711 3.12899,0 22.8854,1.31355 23.02988,8.59088 0.14182,7.30352 -14.64656,9.69423 -20.41062,10.14084 -5.75347,0.4467 -27.40143,1.10343 -27.03627,-8.24928" />
      <path
         id="path144"
         style="fill:#e0e6f4;fill-opacity:1;fill-rule:nonzero;stroke:none"
         d="m 471.91869,617.99125 c 0.0397,1.76025 -1.3477,3.20519 -3.10271,3.25773 l -26.13518,0.60428 c -1.75231,0.0524 -3.21305,-1.33992 -3.25242,-3.10009 l -0.0183,-0.70938 c -0.0365,-1.76016 1.35039,-3.20518 3.10532,-3.25765 l 26.13257,-0.60426 c 1.75501,-0.0262 3.21567,1.33983 3.25512,3.10007 l 0.0158,0.7093" />
      <path
         id="path146"
         style="fill:#e0e6f4;fill-opacity:1;fill-rule:nonzero;stroke:none"
         d="m 658.45376,613.76154 c 0.0394,1.76017 -1.35029,3.2051 -3.10269,3.25766 l -26.14043,0.60426 c -1.75493,0.0262 -3.20781,-1.36611 -3.24718,-3.10007 l -0.0239,-0.70938 c -0.0397,-1.76017 1.34778,-3.20511 3.1027,-3.25766 l 26.14043,-0.60427 c 1.75501,-0.0524 3.2078,1.33983 3.25511,3.10008 l 0.0158,0.70938" />
    </g>
  </g>
</svg>
